<svg width="330" height="330" viewBox="0 0 330 330" fill="none" xmlns="http://www.w3.org/2000/svg">
<rect x="0.18042" width="329.639" height="329.639" rx="73.3963" fill="url(#paint0_linear_327_632)"/>
<path fill-rule="evenodd" clip-rule="evenodd" d="M108.968 132.388C116.517 131.748 117.446 139.081 116.29 145.894C115.324 151.572 112.144 157.154 106.56 157.607C98.9898 158.223 97.9925 151.013 99.2465 144.146C100.278 138.495 103.344 132.866 108.968 132.388ZM208.374 132.388C215.923 131.748 216.852 139.081 215.695 145.894C214.73 151.572 211.55 157.154 205.966 157.607C198.396 158.223 197.398 151.013 198.652 144.146C199.684 138.495 202.749 132.866 208.374 132.388ZM208.289 120.914C195.252 121.576 186.479 131.556 184.78 144.237C182.624 160.33 190.879 169.845 206.194 169.085C218.582 168.469 227.114 159.264 229.319 147.102C232.218 131.096 224.992 120.064 208.289 120.914ZM158.677 132.388C166.228 131.748 167.155 139.081 165.999 145.894C165.033 151.572 161.855 157.154 156.272 157.607C148.701 158.223 147.704 151.013 148.958 144.146C149.99 138.495 153.055 132.866 158.68 132.388H158.677ZM158.592 120.914C145.555 121.576 136.782 131.556 135.083 144.237C132.927 160.33 141.182 169.845 156.497 169.085C168.886 168.469 177.417 159.264 179.619 147.102C182.519 131.096 175.293 120.064 158.589 120.914H158.592ZM43.9518 167.997L77.4953 168.026C78.1553 164.644 78.6393 162.176 79.2969 158.794C79.4656 157.92 79.2382 156.224 77.3975 156.224H60.1906L66.9766 121.982L53.2385 121.974L43.9542 167.997H43.9518ZM230.48 167.997L244.057 168.029L246.577 155.71C246.714 155.025 246.738 154.846 247.538 154.132C248.339 153.418 250.586 151.417 251.679 150.445L259.77 168.021L275.214 168.029L262.351 140.914L283.594 121.977H267.563L250.339 137.331C251.212 133.07 252.082 128.807 252.955 124.547C253.265 123.03 252.341 121.977 251.182 121.977H239.742C236.655 137.318 233.567 152.658 230.48 167.999V167.997ZM108.883 120.916C95.8462 121.578 87.0729 131.559 85.3739 144.24C83.2179 160.332 91.473 169.848 106.788 169.087C119.177 168.472 127.708 159.266 129.91 147.105C132.81 131.099 125.586 120.067 108.88 120.916H108.883Z" fill="#FEC700"/>
<path fill-rule="evenodd" clip-rule="evenodd" d="M215.468 185.784C214.62 189.587 218.319 191.979 221.127 193.635C228.454 197.879 215.001 201.893 214.239 197.49C214.075 196.54 215.476 195.971 214.869 195.661C213.349 194.883 208.704 199.86 215.126 202.664C217.27 203.599 220.059 203.208 222.68 202.24C226.887 200.687 230.793 195.036 226.009 191.861C223.489 190.19 218.785 188.509 220.211 184.932C221.017 183.162 221.978 181.651 223.767 180.342C224.821 179.571 228.857 177.652 230.064 178.944C230.05 179.793 227.317 183.977 227.349 185.678C227.378 187.133 228.353 188.856 229.182 188.472C229.656 188.253 229.73 187.43 229.967 186.884C230.827 184.91 235.501 179.079 234.738 177.917C234.445 177.472 234.093 176.891 233.743 176.539C232.059 174.838 231.404 176.667 230.991 177.592C230.226 175.663 228.666 174.919 226.696 175.067C221.866 175.426 216.439 181.437 215.468 185.779V185.784ZM207.651 206.407C228.991 229.197 265.084 225.338 282.003 200.65C282.396 200.077 282.11 199.489 281.516 200.193C264.393 220.575 233.088 223.346 213.185 205.541C212.694 205.1 211.728 204.212 211.254 203.744C209.115 201.96 205.597 204.217 207.651 206.407ZM105.497 199.043C104.612 199.668 103.737 199.523 103.757 198.051C103.842 195.093 106.783 190.111 108.675 187.974C109.03 187.615 109.981 186.699 110.628 186.874C111.557 187.123 110.381 190.342 108.973 193.345C108.333 194.711 106.756 198.157 105.497 199.046V199.043ZM94.343 196.776C94.2379 197.072 94.0839 197.871 94.0888 198.607C94.1108 201.005 96.0126 199.937 97.1469 198.94C98.1833 198.029 100.114 195.521 100.877 194.344C102.229 190.997 105.837 185.673 109.171 184.401C109.841 184.145 110.709 184.179 111.472 184.442C115.405 185.791 112.955 192.415 111.723 194.952C113.938 193.734 115.539 190.935 115.6 190.822C115.86 190.347 116.05 189.887 116.236 189.429C116.762 188.137 118.192 184.841 119.507 184.408C120.162 184.191 123.154 185.006 121.558 187.44C120.602 188.897 119.424 191.054 118.871 192.552C118.512 193.525 117.561 196.107 117.36 197.849C117.187 199.353 117.59 199.838 118.83 198.701C121.521 196.24 124.049 189.904 125.464 186.306C126.503 183.514 129.473 185.324 128.28 188.568C126.532 193.318 122.469 199.821 118.969 201.76C117.725 202.452 116.806 202.546 116.116 202.297C113.168 201.229 113.677 197.842 114.166 195.737C113.537 196.181 111.452 197.335 110.142 197.935C108.981 199.604 107.585 201.403 105.783 202.169C102.977 203.36 100.102 201.492 100.107 198.509C98.9827 199.809 98.1222 200.951 96.1617 202.134C94.233 203.299 91.5123 202.442 90.9549 200.131C90.4513 200.508 89.8524 200.926 89.4662 201.187C88.7573 201.662 88.6473 199.585 88.8551 198.898C89.0506 198.25 89.1826 197.933 89.476 197.729C89.7816 197.517 90.1849 197.232 90.6518 196.904C91.2483 192.031 97.8411 178.149 102.61 175.003C103.918 174.142 105.106 174.149 105.901 174.72C110.482 178.008 96.856 194.054 94.3454 196.776H94.343ZM95.3673 193.04C96.1886 190.667 102.033 179.116 103.635 177.435C104.216 176.815 104.595 176.684 104.786 176.884C105.292 177.423 104.407 179.114 104.145 179.626C102.202 183.404 98.242 190.268 95.3697 193.037L95.3673 193.04ZM49.9752 179.2C50.7135 178.582 51.4077 178.163 51.9675 178.072C52.5908 177.972 52.9086 178.25 52.9795 178.789C53.5466 183.074 49.9997 192.277 48.0954 196.968L47.3327 198.573C46.7069 199.909 47.164 200.855 48.0245 201.928C49.5205 203.796 50.6694 204.012 52.0066 201.856L53.7055 198.881C53.9842 198.351 54.2067 197.827 54.478 197.288C54.8007 196.648 58.6068 189.865 58.6874 189.838C58.2254 191.026 56.2331 195.346 56.6414 198.664C56.9836 201.45 59.5821 204.66 62.4886 202.602C67.7614 198.868 73.902 187.002 75.1316 181.378C75.5374 179.525 75.469 177.821 74.5156 176.524C73.6991 175.417 70.9442 174.343 71.0811 175.673C71.2644 177.489 71.7289 180.371 67.7443 189.077C65.6005 193.756 62.5326 199.607 60.8239 199.621C58.1985 199.644 64.41 182.131 65.5345 179.933C66.1505 178.727 66.8179 177.521 65.2167 176.46C64.4736 175.968 63.5789 175.446 62.9433 176.406C61.4326 178.688 52.6373 197.323 50.5179 199.631C52.8695 194.558 55.6416 186.635 56.3798 181.284C57.0692 176.581 52.9428 174.597 49.2981 175.83C48.0758 176.244 46.6776 177.304 45.4211 178.656C44.8686 180.477 48.4449 180.482 49.9728 179.202L49.9752 179.2ZM75.5179 193.537C76.8257 190.473 79.0282 187.398 80.3018 186.963C81.8785 186.424 80.7711 189.217 79.1724 191.322C78.307 192.461 77.3439 193.475 75.5179 193.537ZM73.3594 202.354C76.4394 203.811 79.1944 201.716 81.2893 199.338C81.8882 198.659 82.1229 198.216 82.2134 197.542C82.36 196.444 82.272 195.218 81.1842 196.503C79.5195 198.47 77.2926 200.638 75.6083 199.924C74.3421 199.388 74.232 197.756 74.7258 195.819C78.4122 195.649 83.0078 192.592 83.4894 188.644C83.9514 184.873 80.1453 183.586 77.3463 185.338C76.4443 185.902 75.5912 186.736 74.7258 187.711C72.3571 190.384 68.265 199.941 73.3569 202.351L73.3594 202.354ZM131.348 192.914C132.7 189.867 134.944 186.827 136.225 186.409C137.809 185.895 136.662 188.668 135.034 190.753C134.152 191.881 133.176 192.88 131.348 192.914ZM129.065 201.699C132.123 203.2 134.907 201.145 137.039 198.797C137.647 198.125 137.889 197.687 137.99 197.015C138.151 195.92 138.08 194.691 136.975 195.961C135.284 197.906 133.025 200.04 131.35 199.301C130.094 198.748 130.003 197.113 130.527 195.184C134.213 195.066 138.853 192.077 139.393 188.137C139.909 184.373 136.122 183.032 133.296 184.743C132.387 185.294 131.522 186.114 130.644 187.078C128.239 189.717 124.01 199.215 129.067 201.696L129.065 201.699ZM263.659 176.829C264.72 177.469 264.877 179.173 264.009 180.632C263.141 182.092 261.574 182.754 260.513 182.114C259.45 181.474 259.296 179.771 260.164 178.311C261.031 176.852 262.598 176.189 263.659 176.829ZM264.417 193.067C265.251 190.699 271.161 179.187 272.772 177.516C273.787 176.465 274.08 176.756 274.048 177.41C273.921 179.941 266.214 191.622 264.42 193.067H264.417ZM148.897 207.097C148.601 206.72 148.059 205.418 147.318 206.262C146.822 206.826 146.89 207.936 147.35 208.487C149.398 210.953 153.097 211.003 155.619 209.263C160.455 205.927 163.584 194.371 166.603 188.703C168.861 184.462 165.258 183.057 164.126 185.033C162.63 187.647 159.347 194.032 158.609 194.878C158.088 195.477 156.741 197.044 155.6 198.049C154.155 199.319 153.603 199.274 154.231 197.251C155.153 194.283 158.572 188.944 159.35 187.113C159.927 185.757 156.993 183.197 155.637 185.518C154.075 188.189 145.817 202.804 152.906 202.693C155.612 202.415 158.042 198.622 158.768 197.564C158.223 198.937 152.916 212.196 148.897 207.101V207.097ZM175.623 189.434C175.129 191.142 174.212 193.37 173.985 193.889C173.117 195.851 172.095 197.731 171.203 198.76C170.861 199.156 170.445 199.607 169.651 199.7C168.715 199.809 168.451 199.181 168.48 198.302C168.57 195.671 170.927 191.452 172.785 189.055C174.166 187.273 176.728 185.602 175.62 189.434H175.623ZM194.6 187.913C196.467 184.541 193.231 182.562 191.82 184.957C190.835 186.626 188.845 190.67 187.914 191.878C186.904 193.188 183.362 199.37 181.825 199.188C181.174 197.635 185.43 189.808 186.313 188.216C188.18 184.844 184.944 182.865 183.533 185.26C182.856 186.409 181.387 188.806 180.155 191.474C179.649 192.272 178.251 194.275 176.461 195.248C177.449 193.237 178.551 190.318 178.341 187.854C177.994 183.768 174.442 183.83 171.763 186.045C169.954 187.541 168.157 189.838 166.952 191.831C165.297 194.568 163.134 200.692 167.16 202.452C168.135 202.878 169.314 202.917 170.482 202.43C172.289 201.674 173.692 199.882 174.863 198.218C175.933 197.734 177.52 196.884 178.412 196.35C177.894 198.686 178.036 200.773 179.546 201.943C180.094 202.366 180.595 202.454 181.389 202.243C182.744 201.881 185.457 198.809 186.22 197.394C185.738 199.452 186.445 202.742 188.901 202.267C191.439 201.775 194.543 196.37 196.533 192.789C197.384 191.26 198.242 189.739 199.088 188.208C199.273 187.905 199.42 187.637 199.581 187.302C200.107 186.205 201.96 186.798 201.994 187.743C202.016 188.368 201.564 189.321 201.285 189.734C200.474 190.94 198.978 193.237 198 195.516C197.379 196.966 196.817 198.573 197.235 200.156C197.941 202.834 200.982 202.479 202.786 200.761C203.632 199.956 204.319 198.947 204.778 198.031C205.497 196.604 204.527 195.895 203.564 196.951C202.923 197.652 202.334 198.3 201.813 198.662C200.987 199.233 200.598 198.802 200.909 197.933C201.601 195.998 204.05 192.301 204.712 191.214C206.062 189.038 206.829 187.172 204.048 185.993C202.967 185.535 201.657 185.124 201.476 184.942C201.491 184.403 202.625 182.931 202.363 181.59C202.107 180.28 198.296 181.528 198.147 184.775C198.085 186.114 198.567 185.998 197.736 187.285C196.237 189.609 190.412 201.096 189.691 199.006C189.239 197.697 193.566 189.793 194.604 187.92L194.6 187.913ZM273.85 193.579C275.21 190.537 277.466 187.502 278.747 187.088C280.331 186.576 279.179 189.35 277.544 191.428C276.659 192.552 275.679 193.549 273.85 193.579ZM261.249 191.647C259.841 193.778 258.02 196.892 256.37 198.698C254.766 200.456 255.26 198.27 255.639 197.32C256.754 194.522 258.206 191.935 259.746 188.875C260.188 187.994 260.863 187.054 260.516 186.03C259.988 184.462 257.621 183.566 256.306 187.115C255.526 189.22 253.348 192.821 252.155 194.876C251.84 195.42 248.865 199.799 248.166 199.385C247.856 199.208 247.939 198.829 248.054 198.435C249.09 194.864 252.053 191.364 253.209 187.987C253.527 187.054 253.072 185.533 252.231 185.008C248.951 182.902 244.69 190.357 243.612 191.691C244.573 189.911 245.802 187.421 244.973 185.58C244.25 184.125 242.639 184.339 241.622 185.294C240.605 186.249 237.332 190.209 234.697 193.81C235.501 192.301 237.327 188.757 237.833 187.512C238.332 186.281 237.65 185.112 236.618 184.629C235.303 184.012 235.166 184.607 234.621 185.712C232.756 189.481 230.795 193.85 229.37 197.825C229.214 198.263 229.074 198.674 228.96 199.048C228.52 200.493 228.417 200.8 229.277 202.019C229.896 202.893 230.58 203.129 231.524 201.802C235.249 196.579 236.476 193.04 241.952 187.477C242.069 188.718 236.777 197.532 235.904 199.919C235.337 201.47 237.664 203.402 238.96 202.12C239.351 201.733 240.495 198.809 240.989 197.95C241.177 197.625 248.063 187.307 249.009 187.475C249.083 187.797 243.7 196.83 244.225 199.934C244.323 200.512 244.775 201.467 245.076 201.824C247.408 204.559 250.4 200.446 251.495 198.905C251.373 200.877 251.945 201.955 252.884 202.275C255.431 203.141 258.367 199.282 259.609 197.534C259.528 198.413 259.57 199.274 259.821 200.045C260.552 202.28 263.099 203.395 265.158 202.169C267.123 200.997 267.991 199.858 269.12 198.563C269.133 198.499 269.245 201.221 271.531 202.351C274.584 203.86 277.375 201.817 279.512 199.474C280.123 198.804 280.365 198.366 280.468 197.694C280.634 196.599 280.566 195.373 279.456 196.638C277.759 198.578 275.493 200.704 273.821 199.961C272.565 199.402 272.482 197.768 273.01 195.841C276.698 195.733 281.345 192.759 281.895 188.821C282.421 185.06 278.639 183.706 275.808 185.41C274.897 185.959 274.031 186.776 273.149 187.738C271.905 189.094 270.274 192.028 269.531 194.962C268.624 196.242 267.057 198.201 266.16 198.982C264.938 200.042 263.031 200.914 263.099 198.47C263.119 197.788 263.268 197.079 263.366 196.803C266.754 193.168 270.431 188.757 273.063 184.184C274.166 182.267 276.505 178.205 275.698 175.958C275.002 174.024 273.276 174.075 271.743 175.072C267.661 177.733 263.065 187.042 261.237 191.639L261.249 191.647Z" fill="#FEC700"/>
<defs>
<linearGradient id="paint0_linear_327_632" x1="165" y1="0" x2="165" y2="329.639" gradientUnits="userSpaceOnUse">
<stop stop-color="#FF5050"/>
<stop offset="1" stop-color="#FF0000"/>
</linearGradient>
</defs>
</svg>
