<svg width="17" height="20" viewBox="0 0 17 20" fill="none" xmlns="http://www.w3.org/2000/svg">
<path fill-rule="evenodd" clip-rule="evenodd" d="M8.25 11.495C6.741 11.495 5.51302 10.268 5.51302 8.759C5.51302 7.25 6.741 6.022 8.25 6.022C9.759 6.022 10.986 7.25 10.986 8.759C10.986 10.268 9.759 11.495 8.25 11.495ZM13.864 2.652C12.333 1.073 10.339 0.203003 8.25 0.203003C6.159 0.203003 4.16502 1.073 2.63302 2.653C1.07802 4.257 0.22402 6.412 0.29102 8.566C0.48002 14.67 7.67 19.423 7.977 19.622L8.246 19.797L8.518 19.625C8.824 19.431 16.019 14.793 16.209 8.565C16.275 6.412 15.42 4.256 13.864 2.652Z" fill="#B0B0B0"/>
</svg>
