<svg width="45" height="13" viewBox="0 0 45 13" fill="none" xmlns="http://www.w3.org/2000/svg">
<path d="M0.592 6.416C0.592 5.328 0.842667 4.352 1.344 3.488C1.856 2.624 2.544 1.952 3.408 1.472C4.28267 0.981332 5.23733 0.735999 6.272 0.735999C7.456 0.735999 8.50667 1.02933 9.424 1.616C10.352 2.192 11.024 3.01333 11.44 4.08H9.248C8.96 3.49333 8.56 3.056 8.048 2.768C7.536 2.48 6.944 2.336 6.272 2.336C5.536 2.336 4.88 2.50133 4.304 2.832C3.728 3.16267 3.27467 3.63733 2.944 4.256C2.624 4.87467 2.464 5.59467 2.464 6.416C2.464 7.23733 2.624 7.95733 2.944 8.576C3.27467 9.19467 3.728 9.67467 4.304 10.016C4.88 10.3467 5.536 10.512 6.272 10.512C6.944 10.512 7.536 10.368 8.048 10.08C8.56 9.792 8.96 9.35467 9.248 8.768H11.44C11.024 9.83467 10.352 10.656 9.424 11.232C8.50667 11.808 7.456 12.096 6.272 12.096C5.22667 12.096 4.272 11.856 3.408 11.376C2.544 10.8853 1.856 10.208 1.344 9.344C0.842667 8.48 0.592 7.504 0.592 6.416ZM15.399 0.16V12H13.575V0.16H15.399ZM21.6178 12.144C20.7858 12.144 20.0338 11.9573 19.3618 11.584C18.6898 11.2 18.1618 10.6667 17.7778 9.984C17.3938 9.29067 17.2018 8.49067 17.2018 7.584C17.2018 6.688 17.3991 5.89333 17.7938 5.2C18.1884 4.50667 18.7271 3.97333 19.4098 3.6C20.0924 3.22667 20.8551 3.04 21.6978 3.04C22.5404 3.04 23.3031 3.22667 23.9858 3.6C24.6684 3.97333 25.2071 4.50667 25.6018 5.2C25.9964 5.89333 26.1938 6.688 26.1938 7.584C26.1938 8.48 25.9911 9.27467 25.5858 9.968C25.1804 10.6613 24.6258 11.2 23.9218 11.584C23.2284 11.9573 22.4604 12.144 21.6178 12.144ZM21.6178 10.56C22.0871 10.56 22.5244 10.448 22.9298 10.224C23.3458 10 23.6818 9.664 23.9378 9.216C24.1938 8.768 24.3218 8.224 24.3218 7.584C24.3218 6.944 24.1991 6.40533 23.9538 5.968C23.7084 5.52 23.3831 5.184 22.9778 4.96C22.5724 4.736 22.1351 4.624 21.6658 4.624C21.1964 4.624 20.7591 4.736 20.3538 4.96C19.9591 5.184 19.6444 5.52 19.4098 5.968C19.1751 6.40533 19.0578 6.944 19.0578 7.584C19.0578 8.53333 19.2978 9.26933 19.7778 9.792C20.2684 10.304 20.8818 10.56 21.6178 10.56ZM31.1969 12.144C30.5035 12.144 29.8795 12.0213 29.3249 11.776C28.7809 11.52 28.3489 11.1787 28.0289 10.752C27.7089 10.3147 27.5382 9.82933 27.5169 9.296H29.4049C29.4369 9.66933 29.6129 9.984 29.9329 10.24C30.2635 10.4853 30.6742 10.608 31.1649 10.608C31.6769 10.608 32.0715 10.512 32.3489 10.32C32.6369 10.1173 32.7809 9.86133 32.7809 9.552C32.7809 9.22133 32.6209 8.976 32.3009 8.816C31.9915 8.656 31.4955 8.48 30.8129 8.288C30.1515 8.10667 29.6129 7.93067 29.1969 7.76C28.7809 7.58933 28.4182 7.328 28.1089 6.976C27.8102 6.624 27.6609 6.16 27.6609 5.584C27.6609 5.11467 27.7995 4.688 28.0769 4.304C28.3542 3.90933 28.7489 3.6 29.2609 3.376C29.7835 3.152 30.3809 3.04 31.0529 3.04C32.0555 3.04 32.8609 3.296 33.4689 3.808C34.0875 4.30933 34.4182 4.99733 34.4609 5.872H32.6369C32.6049 5.47733 32.4449 5.16267 32.1569 4.928C31.8689 4.69333 31.4795 4.576 30.9889 4.576C30.5089 4.576 30.1409 4.66667 29.8849 4.848C29.6289 5.02933 29.5009 5.26933 29.5009 5.568C29.5009 5.80267 29.5862 6 29.7569 6.16C29.9275 6.32 30.1355 6.448 30.3809 6.544C30.6262 6.62933 30.9889 6.74133 31.4689 6.88C32.1089 7.05067 32.6315 7.22667 33.0369 7.408C33.4529 7.57867 33.8102 7.83467 34.1089 8.176C34.4075 8.51733 34.5622 8.97067 34.5729 9.536C34.5729 10.0373 34.4342 10.4853 34.1569 10.88C33.8795 11.2747 33.4849 11.584 32.9729 11.808C32.4715 12.032 31.8795 12.144 31.1969 12.144ZM44.6238 7.376C44.6238 7.70667 44.6024 8.00533 44.5598 8.272H37.8238C37.8771 8.976 38.1384 9.54133 38.6078 9.968C39.0771 10.3947 39.6531 10.608 40.3358 10.608C41.3171 10.608 42.0104 10.1973 42.4158 9.376H44.3837C44.1171 10.1867 43.6318 10.8533 42.9278 11.376C42.2344 11.888 41.3704 12.144 40.3358 12.144C39.4931 12.144 38.7358 11.9573 38.0638 11.584C37.4024 11.2 36.8798 10.6667 36.4958 9.984C36.1224 9.29067 35.9358 8.49067 35.9358 7.584C35.9358 6.67733 36.1171 5.88267 36.4798 5.2C36.8531 4.50667 37.3704 3.97333 38.0318 3.6C38.7038 3.22667 39.4718 3.04 40.3358 3.04C41.1678 3.04 41.9091 3.22133 42.5598 3.584C43.2104 3.94667 43.7171 4.45867 44.0798 5.12C44.4424 5.77067 44.6238 6.52267 44.6238 7.376ZM42.7198 6.8C42.7091 6.128 42.4691 5.58933 41.9998 5.184C41.5304 4.77867 40.9491 4.576 40.2558 4.576C39.6264 4.576 39.0878 4.77867 38.6398 5.184C38.1918 5.57867 37.9251 6.11733 37.8398 6.8H42.7198Z" fill="#FEC700"/>
</svg>
