<svg width="130" height="42" viewBox="0 0 130 42" fill="none" xmlns="http://www.w3.org/2000/svg">
<rect width="130" height="42" rx="10" fill="#F1F2F7"/>
<path fill-rule="evenodd" clip-rule="evenodd" d="M61.2627 11.3028C63.2669 11.1336 63.5136 13.0728 63.2066 14.8747C62.9502 16.3765 62.1058 17.8529 60.6234 17.9727C58.6133 18.1355 58.3485 16.2288 58.6814 14.4125C58.9553 12.9179 59.7692 11.4291 61.2627 11.3028ZM87.6561 11.3028C89.6604 11.1336 89.907 13.0728 89.6 14.8747C89.3436 16.3765 88.4992 17.8529 87.0168 17.9727C85.0067 18.1355 84.7419 16.2288 85.0749 14.4125C85.3488 12.9179 86.1627 11.4291 87.6561 11.3028ZM87.6334 8.26798C84.172 8.4431 81.8426 11.0828 81.3915 14.4366C80.8191 18.6927 83.0109 21.2094 87.0772 21.0082C90.3665 20.8455 92.6317 18.4108 93.2171 15.1944C93.9869 10.9611 92.0683 8.0434 87.6334 8.26798ZM74.461 11.3028C76.4659 11.1336 76.7119 13.0728 76.4049 14.8747C76.1485 16.3765 75.3048 17.8529 73.8224 17.9727C71.8123 18.1355 71.5474 16.2288 71.8804 14.4125C72.1543 12.9179 72.9682 11.4291 74.4617 11.3028H74.461ZM74.4383 8.26798C70.9769 8.4431 68.6475 11.0828 68.1964 14.4366C67.624 18.6927 69.8158 21.2094 73.8821 21.0082C77.1714 20.8455 79.4366 18.4108 80.0214 15.1944C80.7912 10.9611 78.8726 8.0434 74.4377 8.26798H74.4383ZM44 20.7205L52.9062 20.7283C53.0814 19.8339 53.21 19.1809 53.3846 18.2865C53.4293 18.0554 53.369 17.6069 52.8802 17.6069H48.3116L50.1134 8.55051L46.4657 8.54855L44.0006 20.7205H44ZM93.5254 20.7205L97.1302 20.7289L97.7994 17.4708C97.8358 17.2898 97.8422 17.2423 98.0545 17.0535C98.2674 16.8648 98.8638 16.3355 99.154 16.0784L101.302 20.727L105.403 20.7289L101.988 13.5578L107.628 8.5492H103.371L98.7983 12.61C99.03 11.4831 99.2611 10.3557 99.4928 9.22882C99.5752 8.82782 99.3299 8.5492 99.0222 8.5492H95.9847C95.1649 12.6067 94.3452 16.6636 93.5254 20.7211V20.7205ZM61.24 8.26863C57.7786 8.44375 55.4492 11.0835 54.9981 14.4373C54.4256 18.6934 56.6174 21.21 60.6837 21.0089C63.9731 20.8461 66.2383 18.4115 66.823 15.195C67.5928 10.9617 65.6749 8.04405 61.2393 8.26863H61.24Z" fill="#727272"/>
<path d="M47.1194 26.6121C47.4633 26.6121 47.7689 26.6885 48.0364 26.8413C48.3039 26.9887 48.5113 27.2097 48.6586 27.5045C48.8115 27.7938 48.8879 28.1431 48.8879 28.5525V31.2134H47.7416V28.708C47.7416 28.3478 47.6516 28.0721 47.4715 27.8811C47.2913 27.6846 47.0457 27.5864 46.7346 27.5864C46.418 27.5864 46.1669 27.6846 45.9814 27.8811C45.8012 28.0721 45.7112 28.3478 45.7112 28.708V31.2134H44.5649V25.1547H45.7112V27.2425C45.8585 27.046 46.055 26.8932 46.3007 26.784C46.5463 26.6694 46.8192 26.6121 47.1194 26.6121ZM54.1944 28.8472C54.1944 29.011 54.1835 29.1583 54.1617 29.2893H50.8458C50.8731 29.6168 50.9877 29.8734 51.1896 30.059C51.3916 30.2445 51.6399 30.3373 51.9347 30.3373C52.3604 30.3373 52.6634 30.1545 52.8435 29.7888H54.0798C53.9488 30.2254 53.6977 30.5857 53.3266 30.8695C52.9554 31.1479 52.4996 31.2871 51.9593 31.2871C51.5226 31.2871 51.1296 31.1915 50.7803 31.0005C50.4364 30.804 50.1662 30.5284 49.9697 30.1736C49.7787 29.8188 49.6832 29.4094 49.6832 28.9455C49.6832 28.4761 49.7787 28.064 49.9697 27.7092C50.1608 27.3544 50.4282 27.0815 50.7721 26.8904C51.116 26.6994 51.5117 26.6039 51.9593 26.6039C52.3905 26.6039 52.7753 26.6967 53.1137 26.8822C53.4576 27.0678 53.7223 27.3325 53.9079 27.6764C54.0989 28.0148 54.1944 28.4051 54.1944 28.8472ZM53.0072 28.5197C53.0018 28.225 52.8953 27.9903 52.6879 27.8156C52.4805 27.6355 52.2267 27.5454 51.9265 27.5454C51.6427 27.5454 51.4025 27.6327 51.206 27.8074C51.015 27.9766 50.8976 28.2141 50.854 28.5197H53.0072ZM56.1773 25.1547V31.2134H55.0311V25.1547H56.1773ZM58.456 27.3325C58.6034 27.1251 58.8054 26.9532 59.0619 26.8167C59.3239 26.6748 59.6214 26.6039 59.9543 26.6039C60.3419 26.6039 60.6912 26.6994 61.0023 26.8904C61.3189 27.0815 61.5672 27.3544 61.7474 27.7092C61.933 28.0585 62.0257 28.4651 62.0257 28.9291C62.0257 29.393 61.933 29.8051 61.7474 30.1654C61.5672 30.5202 61.3189 30.7958 61.0023 30.9923C60.6912 31.1888 60.3419 31.2871 59.9543 31.2871C59.6214 31.2871 59.3266 31.2188 59.0701 31.0824C58.819 30.9459 58.6143 30.774 58.456 30.5666V33.3749H57.3098V26.6776H58.456V27.3325ZM60.8549 28.9291C60.8549 28.6562 60.7976 28.4215 60.683 28.225C60.5738 28.023 60.4265 27.8702 60.2409 27.7665C60.0608 27.6628 59.8643 27.6109 59.6514 27.6109C59.444 27.6109 59.2475 27.6655 59.0619 27.7747C58.8818 27.8784 58.7344 28.0312 58.6198 28.2332C58.5106 28.4351 58.456 28.6726 58.456 28.9455C58.456 29.2184 58.5106 29.4558 58.6198 29.6578C58.7344 29.8597 58.8818 30.0153 59.0619 30.1245C59.2475 30.2282 59.444 30.28 59.6514 30.28C59.8643 30.28 60.0608 30.2254 60.2409 30.1163C60.4265 30.0071 60.5738 29.8515 60.683 29.6496C60.7976 29.4476 60.8549 29.2075 60.8549 28.9291ZM69.2062 31.2134L68.584 30.5993C68.0545 31.0742 67.4077 31.3116 66.6436 31.3116C66.2233 31.3116 65.8521 31.2407 65.5301 31.0988C65.2135 30.9514 64.9679 30.7467 64.7932 30.4847C64.6186 30.2172 64.5312 29.9089 64.5312 29.5595C64.5312 29.1829 64.6377 28.8445 64.8505 28.5443C65.0634 28.2441 65.3773 28.0012 65.7921 27.8156C65.6447 27.6355 65.5383 27.4635 65.4728 27.2998C65.4073 27.1306 65.3745 26.9505 65.3745 26.7594C65.3745 26.4974 65.4428 26.2627 65.5792 26.0553C65.7157 25.8424 65.9094 25.676 66.1605 25.5559C66.4171 25.4358 66.7145 25.3758 67.0529 25.3758C67.3968 25.3758 67.6916 25.4413 67.9372 25.5723C68.1828 25.7032 68.3657 25.8779 68.4857 26.0962C68.6058 26.3146 68.6577 26.5575 68.6413 26.8249H67.5278C67.5333 26.6448 67.4896 26.5083 67.3968 26.4156C67.304 26.3173 67.1785 26.2682 67.0202 26.2682C66.8674 26.2682 66.7391 26.3146 66.6354 26.4074C66.5371 26.4947 66.488 26.6093 66.488 26.7512C66.488 26.8877 66.5289 27.0242 66.6108 27.1606C66.6927 27.2916 66.8264 27.4554 67.012 27.6519L68.453 29.0765C68.4639 29.0655 68.4721 29.0546 68.4776 29.0437C68.483 29.0328 68.4885 29.0219 68.4939 29.011L68.9606 28.2332H70.156L69.5829 29.2402C69.4737 29.4531 69.3563 29.655 69.2308 29.8461L70.6145 31.2134H69.2062ZM66.6763 30.3619C67.1239 30.3619 67.5196 30.2036 67.8635 29.887L66.4553 28.4952C65.9258 28.7299 65.6611 29.0628 65.6611 29.494C65.6611 29.7396 65.7539 29.9471 65.9395 30.1163C66.125 30.28 66.3707 30.3619 66.6763 30.3619ZM74.8687 31.2871C74.4975 31.2871 74.1645 31.2216 73.8698 31.0906C73.5751 30.9541 73.3403 30.7713 73.1657 30.542C72.9965 30.3128 72.9037 30.059 72.8873 29.7806H74.0417C74.0636 29.9552 74.1482 30.0999 74.2955 30.2145C74.4484 30.3291 74.6367 30.3865 74.8605 30.3865C75.0788 30.3865 75.248 30.3428 75.3681 30.2555C75.4936 30.1681 75.5564 30.0562 75.5564 29.9198C75.5564 29.7724 75.48 29.6632 75.3272 29.5923C75.1798 29.5159 74.9423 29.434 74.6149 29.3466C74.2764 29.2648 73.9981 29.1802 73.7797 29.0928C73.5669 29.0055 73.3813 28.8718 73.223 28.6917C73.0702 28.5115 72.9937 28.2686 72.9937 27.963C72.9937 27.7119 73.0647 27.4826 73.2066 27.2752C73.354 27.0678 73.5614 26.9041 73.8289 26.784C74.1018 26.6639 74.4211 26.6039 74.7868 26.6039C75.3272 26.6039 75.7584 26.7403 76.0804 27.0132C76.4024 27.2807 76.5798 27.6437 76.6126 28.1022H75.5155C75.4991 27.922 75.4227 27.7801 75.2862 27.6764C75.1552 27.5673 74.9778 27.5127 74.754 27.5127C74.5466 27.5127 74.3856 27.5509 74.271 27.6273C74.1618 27.7037 74.1072 27.8101 74.1072 27.9466C74.1072 28.0994 74.1836 28.2168 74.3365 28.2987C74.4893 28.3751 74.7267 28.4542 75.0488 28.5361C75.3763 28.618 75.6465 28.7026 75.8593 28.7899C76.0722 28.8772 76.2551 29.0137 76.4079 29.1993C76.5662 29.3794 76.6481 29.6196 76.6535 29.9198C76.6535 30.1818 76.5798 30.4165 76.4325 30.6239C76.2905 30.8313 76.0831 30.995 75.8102 31.1151C75.5428 31.2298 75.2289 31.2871 74.8687 31.2871ZM81.8764 26.6776V31.2134H80.722V30.6403C80.5746 30.8368 80.3809 30.9923 80.1407 31.1069C79.906 31.2161 79.6495 31.2707 79.3711 31.2707C79.0163 31.2707 78.7025 31.197 78.4295 31.0496C78.1566 30.8968 77.941 30.6757 77.7827 30.3865C77.6299 30.0917 77.5535 29.7424 77.5535 29.3385V26.6776H78.6997V29.1747C78.6997 29.535 78.7898 29.8133 78.9699 30.0098C79.15 30.2009 79.3957 30.2964 79.7068 30.2964C80.0234 30.2964 80.2717 30.2009 80.4518 30.0098C80.632 29.8133 80.722 29.535 80.722 29.1747V26.6776H81.8764ZM84.1536 27.3325C84.301 27.1251 84.503 26.9532 84.7595 26.8167C85.0215 26.6748 85.319 26.6039 85.6519 26.6039C86.0395 26.6039 86.3888 26.6994 86.6999 26.8904C87.0165 27.0815 87.2649 27.3544 87.445 27.7092C87.6306 28.0585 87.7233 28.4651 87.7233 28.9291C87.7233 29.393 87.6306 29.8051 87.445 30.1654C87.2649 30.5202 87.0165 30.7958 86.6999 30.9923C86.3888 31.1888 86.0395 31.2871 85.6519 31.2871C85.319 31.2871 85.0242 31.2188 84.7677 31.0824C84.5166 30.9459 84.3119 30.774 84.1536 30.5666V33.3749H83.0074V26.6776H84.1536V27.3325ZM86.5525 28.9291C86.5525 28.6562 86.4952 28.4215 86.3806 28.225C86.2714 28.023 86.1241 27.8702 85.9385 27.7665C85.7584 27.6628 85.5619 27.6109 85.349 27.6109C85.1416 27.6109 84.9451 27.6655 84.7595 27.7747C84.5794 27.8784 84.432 28.0312 84.3174 28.2332C84.2082 28.4351 84.1536 28.6726 84.1536 28.9455C84.1536 29.2184 84.2082 29.4558 84.3174 29.6578C84.432 29.8597 84.5794 30.0153 84.7595 30.1245C84.9451 30.2282 85.1416 30.28 85.349 30.28C85.5619 30.28 85.7584 30.2254 85.9385 30.1163C86.1241 30.0071 86.2714 29.8515 86.3806 29.6496C86.4952 29.4476 86.5525 29.2075 86.5525 28.9291ZM89.7025 27.3325C89.8499 27.1251 90.0519 26.9532 90.3084 26.8167C90.5704 26.6748 90.8679 26.6039 91.2008 26.6039C91.5884 26.6039 91.9377 26.6994 92.2488 26.8904C92.5654 27.0815 92.8137 27.3544 92.9939 27.7092C93.1795 28.0585 93.2722 28.4651 93.2722 28.9291C93.2722 29.393 93.1795 29.8051 92.9939 30.1654C92.8137 30.5202 92.5654 30.7958 92.2488 30.9923C91.9377 31.1888 91.5884 31.2871 91.2008 31.2871C90.8679 31.2871 90.5731 31.2188 90.3166 31.0824C90.0655 30.9459 89.8608 30.774 89.7025 30.5666V33.3749H88.5563V26.6776H89.7025V27.3325ZM92.1014 28.9291C92.1014 28.6562 92.0441 28.4215 91.9295 28.225C91.8203 28.023 91.673 27.8702 91.4874 27.7665C91.3073 27.6628 91.1108 27.6109 90.8979 27.6109C90.6905 27.6109 90.494 27.6655 90.3084 27.7747C90.1283 27.8784 89.9809 28.0312 89.8663 28.2332C89.7571 28.4351 89.7025 28.6726 89.7025 28.9455C89.7025 29.2184 89.7571 29.4558 89.8663 29.6578C89.9809 29.8597 90.1283 30.0153 90.3084 30.1245C90.494 30.2282 90.6905 30.28 90.8979 30.28C91.1108 30.28 91.3073 30.2254 91.4874 30.1163C91.673 30.0071 91.8203 29.8515 91.9295 29.6496C92.0441 29.4476 92.1014 29.2075 92.1014 28.9291ZM96.1193 31.2871C95.6826 31.2871 95.2896 31.1915 94.9403 31.0005C94.591 30.804 94.3153 30.5284 94.1134 30.1736C93.9169 29.8188 93.8186 29.4094 93.8186 28.9455C93.8186 28.4815 93.9196 28.0721 94.1216 27.7174C94.329 27.3626 94.6101 27.0897 94.9649 26.8986C95.3197 26.7021 95.7154 26.6039 96.152 26.6039C96.5887 26.6039 96.9844 26.7021 97.3392 26.8986C97.694 27.0897 97.9724 27.3626 98.1743 27.7174C98.3817 28.0721 98.4855 28.4815 98.4855 28.9455C98.4855 29.4094 98.379 29.8188 98.1661 30.1736C97.9587 30.5284 97.6749 30.804 97.3147 31.0005C96.9599 31.1915 96.5614 31.2871 96.1193 31.2871ZM96.1193 30.2882C96.3267 30.2882 96.5205 30.2391 96.7006 30.1408C96.8862 30.0371 97.0335 29.8843 97.1427 29.6823C97.2519 29.4804 97.3065 29.2348 97.3065 28.9455C97.3065 28.5143 97.1918 28.184 96.9626 27.9548C96.7388 27.7201 96.4632 27.6027 96.1357 27.6027C95.8082 27.6027 95.5325 27.7201 95.3087 27.9548C95.0904 28.184 94.9812 28.5143 94.9812 28.9455C94.9812 29.3767 95.0877 29.7096 95.3005 29.9443C95.5189 30.1736 95.7918 30.2882 96.1193 30.2882ZM100.472 27.3817C100.62 27.1415 100.811 26.9532 101.046 26.8167C101.286 26.6803 101.559 26.6121 101.864 26.6121V27.8156H101.561C101.201 27.8156 100.928 27.9002 100.743 28.0694C100.563 28.2386 100.472 28.5334 100.472 28.9537V31.2134H99.3263V26.6776H100.472V27.3817ZM103.971 27.6191V29.8133C103.971 29.9662 104.006 30.0781 104.077 30.149C104.154 30.2145 104.279 30.2473 104.454 30.2473H104.986V31.2134H104.266C103.3 31.2134 102.817 30.744 102.817 29.8051V27.6191H102.276V26.6776H102.817V25.5559H103.971V26.6776H104.986V27.6191H103.971Z" fill="#B0B0B0"/>
<g clip-path="url(#clip0_301_625)">
<path d="M31.6666 9.16675H14.3333C13.1416 9.16675 12.1775 10.1417 12.1775 11.3334L12.1666 30.8334L16.5 26.5001H31.6666C32.8583 26.5001 33.8333 25.5251 33.8333 24.3334V11.3334C33.8333 10.1417 32.8583 9.16675 31.6666 9.16675ZM16.5 16.7501H29.5V18.9167H16.5V16.7501ZM25.1666 22.1667H16.5V20.0001H25.1666V22.1667ZM29.5 15.6667H16.5V13.5001H29.5V15.6667Z" fill="#FEC700"/>
</g>
<path d="M112.536 32.5723C111.862 32.4556 111.262 32.2094 110.737 31.8335C110.206 31.4576 109.794 30.9845 109.503 30.4142C109.205 29.8439 109.056 29.2218 109.056 28.5478C109.056 27.984 109.159 27.4915 109.367 27.0702C109.574 26.649 109.869 26.3217 110.251 26.0884C110.634 25.8551 111.084 25.7287 111.602 25.7093L111.602 27.7604C111.35 27.8382 111.155 27.9743 111.019 28.1687C110.883 28.3631 110.815 28.6029 110.815 28.888C110.815 29.3287 110.971 29.7078 111.282 30.0254C111.593 30.3429 112.011 30.5471 112.536 30.6378C112.672 30.6637 112.818 30.6767 112.973 30.6767C113.375 30.6767 113.692 30.573 113.926 30.3656C114.153 30.1518 114.266 29.8601 114.266 29.4907C114.266 29.2056 114.198 28.9431 114.062 28.7033C113.926 28.4571 113.731 28.2529 113.479 28.0909L113.479 26.0301C114.263 26.3412 114.885 26.8304 115.345 27.498C115.799 28.1655 116.025 28.9269 116.025 29.7824C116.025 30.3721 115.912 30.8841 115.685 31.3183C115.458 31.746 115.138 32.0733 114.723 32.3001C114.308 32.5269 113.828 32.6403 113.284 32.6403C113.031 32.6403 112.782 32.6176 112.536 32.5723ZM113.245 25.4098C112.681 25.3061 112.189 25.1149 111.768 24.8362C111.346 24.5576 111.022 24.2238 110.796 23.835C110.569 23.4397 110.455 23.0249 110.455 22.5907C110.455 22.2148 110.53 21.9038 110.679 21.6575C110.828 21.4112 111.029 21.2395 111.282 21.1423L110.523 21.0062L110.523 19.1009L115.977 20.0633L115.977 21.9686L115.219 21.8325C115.471 22.0204 115.672 22.2667 115.821 22.5713C115.97 22.8759 116.045 23.2128 116.045 23.5822C116.045 24.1525 115.857 24.6094 115.481 24.9529C115.099 25.2964 114.58 25.4681 113.926 25.4681C113.712 25.4681 113.485 25.4487 113.245 25.4098ZM113.245 21.4825C113.148 21.4631 113.057 21.4534 112.973 21.4534C112.701 21.4534 112.49 21.5311 112.341 21.6867C112.192 21.8357 112.118 22.0301 112.118 22.2699C112.118 22.5551 112.218 22.811 112.419 23.0379C112.613 23.2647 112.889 23.4073 113.245 23.4656C113.342 23.485 113.436 23.4948 113.527 23.4948C113.799 23.4948 114.01 23.4202 114.159 23.2712C114.308 23.1156 114.383 22.918 114.383 22.6782C114.383 22.393 114.282 22.1371 114.081 21.9102C113.88 21.6834 113.602 21.5408 113.245 21.4825ZM111.515 16.2751C111.197 16.0094 110.945 15.7081 110.757 15.3711C110.569 15.0341 110.475 14.6906 110.475 14.3407L112.506 14.6906L112.506 15.2253C112.506 15.6271 112.581 15.9414 112.73 16.1682C112.879 16.395 113.138 16.5473 113.508 16.6251L115.977 17.0625L115.977 18.9776L110.523 18.0055L110.523 16.1002L111.515 16.2751ZM110.455 11.1885C110.455 10.4756 110.646 9.91183 111.029 9.49707C111.411 9.07583 111.933 8.86521 112.594 8.86521C112.814 8.86521 113.009 8.88141 113.177 8.91381C113.385 8.9527 113.534 8.99158 113.624 9.03046L113.624 12.6369C113.663 12.6434 113.722 12.6467 113.799 12.6467C114.046 12.6467 114.227 12.5883 114.344 12.4717C114.46 12.3485 114.519 12.1865 114.519 11.9856C114.519 11.6681 114.376 11.4153 114.091 11.2274L114.091 9.20544C114.467 9.3545 114.804 9.57808 115.102 9.87619C115.394 10.1678 115.624 10.5145 115.792 10.9163C115.961 11.3116 116.045 11.7329 116.045 12.18C116.045 12.8929 115.85 13.46 115.462 13.8812C115.073 14.3024 114.538 14.5131 113.858 14.5131C113.663 14.5131 113.459 14.4936 113.245 14.4547C112.675 14.3511 112.182 14.1469 111.768 13.8423C111.346 13.5313 111.022 13.1489 110.796 12.6953C110.569 12.2351 110.455 11.7329 110.455 11.1885ZM112.769 10.79C112.678 10.777 112.62 10.7705 112.594 10.7705C112.387 10.7705 112.231 10.8353 112.127 10.9649C112.017 11.0945 111.962 11.263 111.962 11.4704C111.962 11.7102 112.03 11.9176 112.166 12.0926C112.302 12.2675 112.503 12.3971 112.769 12.4814L112.769 10.79Z" fill="#727272"/>
<defs>
<clipPath id="clip0_301_625">
<rect width="26" height="26" fill="white" transform="translate(10 7)"/>
</clipPath>
</defs>
</svg>
