<?xml version="1.0" encoding="UTF-8"?>
<!DOCTYPE svg PUBLIC "-//W3C//DTD SVG 1.1//EN" "http://www.w3.org/Graphics/SVG/1.1/DTD/svg11.dtd">
<!-- Creator: CorelDRAW -->
<svg xmlns="http://www.w3.org/2000/svg" xml:space="preserve" width="98.21mm" height="37.7757mm" version="1.1" style="shape-rendering:geometricPrecision; text-rendering:geometricPrecision; image-rendering:optimizeQuality; fill-rule:evenodd; clip-rule:evenodd"
viewBox="0 0 16390.36 6304.42"
 xmlns:xlink="http://www.w3.org/1999/xlink"
 xmlns:xodm="http://www.corel.com/coreldraw/odm/2003">
 <defs>
  <style type="text/css">
   <![CDATA[
    .fil1 {fill:#FEFEFE}
    .fil0 {fill:#FECB07}
   ]]>
  </style>
 </defs>
 <g id="Слой_x0020_1">
  <metadata id="CorelCorpID_0Corel-Layer"/>
  <path class="fil0" d="M4446.83 791.06c516.38,-43.91 579.88,459.57 500.66,927.3 -66.06,389.94 -283.48,773.14 -665.34,804.25 -517.76,42.21 -586,-452.84 -500.24,-924.29 70.59,-388.04 280.16,-774.54 664.93,-807.25zm6798.85 0c516.38,-43.91 579.88,459.57 500.67,927.3 -66.06,389.94 -283.5,773.14 -665.36,804.25 -517.76,42.21 -586,-452.84 -500.24,-924.29 70.58,-388.04 280.18,-774.54 664.93,-807.25zm-5.84 -787.91c-891.67,45.51 -1491.64,730.87 -1607.83,1601.44 -147.45,1104.89 417.13,1758.3 1464.64,1706.09 847.36,-42.22 1430.87,-674.29 1581.56,-1509.36 198.3,-1098.99 -295.86,-1856.48 -1438.37,-1798.17zm-3393.11 787.91c516.38,-43.91 579.88,459.57 500.67,927.3 -66.06,389.94 -283.5,773.14 -665.36,804.25 -517.76,42.21 -586,-452.84 -500.24,-924.29 70.58,-388.04 280.18,-774.54 664.93,-807.25zm-5.84 -787.91c-891.67,45.51 -1491.65,730.87 -1607.83,1601.44 -147.45,1104.89 417.13,1758.3 1464.64,1706.09 847.36,-42.22 1430.87,-674.29 1581.56,-1509.36 198.3,-1098.99 -295.86,-1856.48 -1438.37,-1798.17zm-7840.89 3232.83l2294.13 2.04c45.08,-232.28 78.19,-401.71 123.25,-633.99 11.63,-59.9 -3.94,-176.49 -129.94,-176.49l-1176.87 0 464.06 -2351.11 -939.66 -0.55 -634.97 3160.1zm12757.66 -0.07l928.56 2.12 172.4 -845.8c9.41,-46.93 10.95,-59.4 65.76,-108.41 54.81,-49.02 208.41,-186.38 283.16,-253.24l553.39 1206.82 1056.3 0.52 -879.8 -1861.74 1452.92 -1300.3 -1096.47 0 -1178.03 1054.28c59.65,-292.59 119.28,-585.2 178.92,-877.8 21.21,-104.16 -41.99,-176.49 -121.26,-176.49l-782.47 0c-211.13,1053.33 -422.27,2106.68 -633.38,3160.03zm-8316.68 -3232.76c-891.68,45.51 -1491.65,730.87 -1607.83,1601.44 -147.46,1104.89 417.11,1758.3 1464.64,1706.09 847.34,-42.22 1430.87,-674.29 1581.56,-1509.36 198.3,-1098.99 -295.86,-1856.48 -1438.37,-1798.17z"/>
  <path class="fil1" d="M10914.12 4417.8c-44.64,200.77 149.88,327.12 297.68,414.54 385.3,224.08 -322.25,436.05 -362.34,203.54 -8.66,-50.2 65,-80.26 33.18,-96.6 -79.99,-41.09 -324.2,221.66 13.53,369.73 112.72,49.43 259.42,28.76 397.32,-22.31 221.3,-81.94 426.77,-380.39 175.07,-548 -132.49,-88.2 -379.88,-176.97 -304.93,-365.76 42.39,-93.44 93.04,-173.32 187.05,-242.36 55.41,-40.65 267.69,-142.07 331.18,-73.87 -0.82,44.86 -144.53,265.77 -142.78,355.61 1.5,76.79 52.8,167.78 96.41,147.51 24.97,-11.62 28.74,-54.99 41.22,-83.76 45.19,-104.22 291.02,-412.14 250.9,-473.4 -15.44,-23.58 -33.95,-54.17 -52.29,-72.76 -88.57,-89.75 -123,6.76 -144.78,55.64 -40.19,-101.89 -122.21,-141.11 -225.95,-133.35 -254.09,19.04 -539.51,336.32 -590.49,565.59zm-411.24 1088.96c1122.38,1203.28 3020.79,999.53 3910.57,-304.03 20.68,-30.29 5.61,-61.4 -25.55,-24.15 -900.59,1076.26 -2547.07,1222.56 -3593.96,282.41 -25.83,-23.23 -76.65,-70.23 -101.55,-94.88 -112.52,-94.28 -297.45,24.9 -189.5,140.64zm-5372.8 -388.86c-46.6,33.06 -92.61,25.37 -91.54,-52.42 4.56,-156.23 159.18,-419.25 258.75,-532.13 18.59,-18.96 68.63,-67.36 102.72,-58.14 48.83,13.18 -12.93,183.13 -87.07,341.64 -33.73,72.1 -116.66,254.07 -182.86,301.05zm-586.67 -119.74c-5.49,15.62 -13.69,57.86 -13.32,96.66 1.2,126.62 101.19,70.19 160.82,17.59 54.51,-48.08 156.04,-180.54 196.15,-242.71 71.1,-176.8 260.88,-457.8 436.2,-525.04 35.28,-13.53 80.93,-11.7 121.03,2.12 206.86,71.3 77.97,420.97 13.18,555.01 116.51,-64.32 200.7,-212.1 203.89,-218.03 13.6,-25.17 23.63,-49.37 33.43,-73.6 27.6,-68.28 102.87,-242.24 171.98,-265.17 34.41,-11.42 191.84,31.58 107.81,160.07 -50.33,76.95 -112.23,190.84 -141.29,269.9 -18.88,51.39 -68.98,187.69 -79.51,279.68 -9.08,79.37 12.02,104.92 77.32,44.99 141.56,-129.91 274.52,-464.52 349,-654.5 54.59,-147.43 210.82,-51.9 148.03,119.44 -91.87,250.79 -305.68,594.17 -489.76,696.64 -65.49,36.45 -113.74,41.47 -149.98,28.29 -155.09,-56.36 -128.31,-235.28 -102.67,-346.37 -33.03,23.45 -142.78,84.31 -211.63,116.09 -61.08,88.17 -134.43,183.16 -229.21,223.55 -147.58,62.88 -298.85,-35.7 -298.57,-193.23 -59.1,68.64 -104.34,128.99 -207.46,191.46 -101.4,61.42 -244.55,16.26 -273.87,-105.78 -26.54,19.89 -57.96,42.02 -78.32,55.74 -37.32,25.15 -43.01,-84.6 -32.06,-120.85 10.31,-34.21 17.24,-50.97 32.64,-61.72 16.07,-11.22 37.27,-26.24 61.8,-43.54 31.34,-257.3 378.14,-990.31 629.03,-1156.37 68.79,-45.51 131.33,-45.04 173.1,-14.94 240.99,173.62 -475.69,1020.91 -607.77,1164.6zm53.91 -197.33c43.24,-125.25 350.57,-735.24 434.82,-823.91 30.66,-32.78 50.6,-39.65 60.5,-29.07 26.65,28.44 -19.86,117.72 -33.71,144.78 -102.22,199.47 -310.52,561.92 -461.6,708.2zm-2387.48 -730.78c38.84,-32.64 75.32,-54.72 104.86,-59.55 32.79,-5.36 49.52,9.36 53.27,37.8 29.91,226.25 -156.76,712.17 -256.86,959.87l-40.05 84.81c-32.89,70.51 -8.86,120.53 36.33,177.17 78.66,98.62 139.1,110.05 209.43,-3.72l89.37 -157.18c14.64,-27.95 26.34,-55.66 40.67,-84.08 17.02,-33.8 217.14,-391.94 221.38,-393.41 -24.27,62.75 -129.11,290.89 -107.63,466.03 18.04,147.06 154.71,316.61 307.53,207.93 277.34,-197.22 600.24,-823.64 664.93,-1120.72 21.3,-97.81 17.81,-187.82 -32.43,-256.34 -42.91,-58.5 -187.79,-115.09 -180.64,-44.94 9.71,95.88 34.05,248.07 -175.55,707.77 -112.67,247.08 -274.1,556.03 -363.99,556.76 -138.09,1.1 188.55,-923.51 247.77,-1039.56 32.46,-63.65 67.56,-127.3 -16.64,-183.33 -39.12,-26.02 -86.08,-53.59 -119.54,-2.89 -79.51,120.55 -542.03,1104.42 -653.55,1226.3 123.67,-267.89 269.46,-686.27 308.35,-968.8 36.23,-248.4 -180.71,-353.09 -372.47,-287.94 -64.25,21.85 -137.75,77.9 -203.96,149.22 -29.02,96.2 159,96.46 239.42,28.81zm1343.41 757c68.79,-161.85 184.63,-324.12 251.69,-347.15 82.88,-28.42 24.72,119.01 -59.4,230.21 -45.56,60.21 -96.16,113.74 -192.29,116.94zm-113.55 465.51c161.95,76.89 306.86,-33.61 417.13,-159.2 31.48,-35.88 43.88,-59.33 48.63,-94.83 7.74,-57.94 3.02,-122.68 -54.11,-54.86 -87.52,103.91 -204.74,218.36 -293.33,180.61 -66.52,-28.34 -72.4,-114.54 -46.4,-216.72 193.84,-9.03 435.59,-170.36 460.97,-378.78 24.28,-199.12 -175.82,-267.01 -323.1,-174.57 -47.43,29.76 -92.29,73.77 -137.82,125.34 -124.53,141.11 -339.81,645.85 -71.98,773.01zm3049.93 -498.45c71.06,-160.85 189.17,-321.43 256.54,-343.5 83.26,-27.22 23.05,119.34 -62.63,229.34 -46.4,59.55 -97.75,112.33 -193.91,114.15zm-120.11 463.82c160.85,79.22 307.31,-29.17 419.33,-153.17 31.99,-35.43 44.71,-58.7 49.97,-94.13 8.56,-57.81 4.76,-122.61 -53.32,-55.62 -88.97,102.64 -207.8,215.39 -295.83,176.37 -66.14,-29.29 -70.8,-115.56 -43.36,-217.38 193.96,-6.23 437.96,-164.05 466.28,-372.1 27.09,-198.73 -172.06,-269.51 -320.63,-179.19 -47.83,29.07 -93.31,72.41 -139.55,123.33 -126.52,139.3 -348.89,640.89 -82.88,771.89zm7079.15 -1313.18c55.83,33.83 64.07,123.73 18.37,200.77 -45.69,77.07 -127.99,112.1 -183.85,78.26 -55.86,-33.83 -64.09,-123.75 -18.39,-200.77 45.69,-77.07 128.01,-112.08 183.86,-78.26zm39.9 857.3c43.88,-125 354.71,-732.82 439.42,-821.05 53.3,-55.52 68.79,-40.17 67.07,-5.61 -6.66,133.6 -412.14,750.48 -506.5,826.66zm-6075.83 740.83c-15.6,-19.89 -44.13,-88.6 -83.11,-44.11 -26.1,29.77 -22.45,88.32 1.65,117.44 107.79,130.26 302.29,132.76 434.92,40.94 254.34,-176.05 418.91,-786.24 577.74,-1085.53 118.81,-223.9 -70.75,-298.17 -130.31,-193.76 -78.71,138 -251.27,475.12 -290.11,519.8 -27.39,31.53 -98.27,114.4 -158.28,167.39 -75.97,67.04 -105.09,64.7 -72.05,-42.12 48.47,-156.71 228.27,-438.67 269.23,-535.27 30.36,-71.58 -123.92,-206.73 -195.28,-84.28 -82.19,141.09 -516.48,912.69 -143.68,906.85 142.31,-14.64 270.2,-214.97 308.4,-270.9 -28.71,72.56 -307.86,772.67 -519.13,503.54zm1405.62 -932.57c-25.98,90.25 -74.12,207.78 -86.17,235.17 -45.61,103.57 -99.42,202.91 -146.25,257.25 -17.99,20.88 -39.94,44.74 -81.68,49.65 -49.27,5.79 -63.13,-27.44 -61.55,-73.77 4.77,-138.9 128.66,-361.64 226.47,-488.27 72.68,-94.11 207.38,-182.35 149.17,19.98zm998.14 -80.36c98.25,-178.02 -71.93,-282.58 -146.16,-156.14 -51.77,88.1 -156.51,301.72 -205.41,365.41 -53.1,69.16 -239.42,395.55 -320.28,386 -34.25,-82.01 189.67,-495.33 236.03,-579.4 98.27,-178.02 -71.93,-282.58 -146.15,-156.13 -35.65,60.68 -112.83,187.3 -177.74,328.22 -26.62,42.14 -100.1,147.87 -194.29,199.23 51.99,-106.19 109.91,-260.3 98.87,-390.36 -18.32,-215.81 -205.09,-212.49 -345.96,-95.55 -95.13,78.97 -189.67,200.3 -253.09,305.58 -87.05,144.49 -200.8,467.88 10.88,560.82 51.34,22.53 113.29,24.62 174.73,-1.18 94.98,-39.9 168.84,-134.48 230.38,-222.33 56.26,-25.6 139.77,-70.38 186.68,-98.68 -27.27,123.3 -19.79,233.61 59.63,295.31 28.86,22.41 55.12,27.02 96.96,15.82 71.26,-19.09 213.99,-181.31 254.01,-256.06 -25.33,108.6 11.88,282.41 141.02,257.3 133.43,-25.95 296.68,-311.42 401.41,-500.52 44.73,-80.76 89.82,-161 134.36,-241.91 9.73,-16.04 17.49,-30.21 25.93,-47.88 27.67,-57.93 125.07,-26.69 126.87,23.28 1.2,33.04 -22.6,83.3 -37.22,105.11 -42.69,63.74 -121.36,184.92 -172.8,305.28 -32.71,76.52 -62.18,161.37 -40.22,244.96 37.17,141.46 197.11,122.65 291.98,31.94 44.46,-42.49 80.63,-95.81 104.77,-144.08 37.75,-75.35 -13.27,-112.87 -63.94,-57.08 -33.66,37.05 -64.6,71.25 -92.02,90.29 -43.48,30.21 -63.87,7.43 -47.53,-38.45 36.4,-102.22 165.21,-297.42 200.04,-354.86 70.98,-114.97 111.28,-213.39 -34.98,-275.6 -56.81,-24.15 -125.79,-45.83 -135.2,-55.44 0.77,-28.39 60.43,-106.14 46.63,-177.05 -13.47,-69.18 -213.95,-3.27 -221.75,168.13 -3.24,70.7 22.03,64.5 -21.68,132.61 -78.74,122.66 -385.17,729.23 -423.14,618.82 -23.82,-69.18 203.72,-486.42 258.36,-585.4zm4168.24 299.24c71.55,-160.63 190.12,-320.85 257.56,-342.69 83.35,-27 22.7,119.39 -63.32,229.12 -46.58,59.4 -98.1,112.03 -194.24,113.57zm-662.72 -102.09c-74.02,112.55 -169.81,276.91 -256.63,372.35 -84.4,92.82 -58.36,-22.58 -38.43,-72.83 58.61,-147.77 134.93,-284.35 215.97,-445.9 23.35,-46.51 58.71,-96.13 40.57,-150.22 -27.75,-82.83 -152.24,-130.11 -221.41,57.28 -41.06,111.18 -155.63,301.22 -218.26,409.85 -16.54,28.67 -173.13,259.93 -209.82,238.12 -16.41,-9.45 -11.92,-29.32 -5.89,-50.17 54.52,-188.55 210.37,-373.32 271.2,-551.71 16.77,-49.2 -7.18,-129.62 -51.44,-157.31 -172.48,-111.2 -396.6,282.43 -453.33,352.82 50.57,-93.91 115.25,-225.49 71.68,-322.65 -38.07,-76.8 -122.73,-65.45 -176.2,-15.02 -53.47,50.43 -225.64,259.52 -364.19,449.65 42.27,-79.67 138.39,-266.74 164.99,-332.53 26.25,-64.95 -9.65,-126.67 -63.92,-152.27 -69.13,-32.58 -76.39,-1.1 -105.07,57.14 -98.07,199.03 -201.15,429.73 -276.2,639.58 -8.26,23.13 -15.57,44.88 -21.56,64.64 -23.16,76.32 -28.59,92.61 16.74,156.93 32.51,46.15 68.48,58.55 118.21,-11.47 195.98,-275.82 260.42,-462.62 548.49,-756.4 6.14,65.52 -272.13,530.91 -318.09,657.03 -29.84,81.84 92.62,183.85 160.75,116.12 20.58,-20.46 80.68,-174.85 106.78,-220.1 9.88,-17.14 372.08,-561.97 421.8,-553.11 3.82,16.97 -279.21,493.98 -251.62,657.9 5.16,30.61 28.97,80.96 44.71,99.88 122.71,144.38 280.06,-72.83 337.6,-154.11 -6.38,104.02 23.6,161.07 73.05,177.94 133.93,45.73 288.44,-158.06 353.66,-250.27 -4.22,46.4 -2.09,91.84 11.17,132.59 38.38,118.03 172.45,176.9 280.66,112.1 103.44,-61.92 149,-122.01 208.46,-190.36 0.63,-3.34 6.58,140.34 126.8,200 160.62,79.72 307.38,-28.22 419.78,-151.89 32.11,-35.31 44.89,-58.55 50.25,-93.96 8.75,-57.79 5.14,-122.61 -53.15,-55.79 -89.29,102.37 -208.45,214.74 -296.36,175.47 -66.04,-29.51 -70.44,-115.79 -42.69,-217.51 193.98,-5.64 438.44,-162.72 467.38,-370.66 27.69,-198.65 -171.23,-270.05 -320.08,-180.18 -47.91,28.91 -93.53,72.11 -139.92,122.9 -65.45,71.61 -151.17,226.52 -190.27,381.45 -47.76,67.54 -130.12,171.06 -177.27,212.22 -64.22,56.04 -164.54,101.97 -160.93,-27.02 1,-35.97 8.81,-73.38 14.05,-88 178.26,-191.92 371.6,-424.85 509.99,-666.33 58.04,-101.27 181.08,-315.71 138.62,-434.28 -36.58,-102.1 -127.45,-99.43 -207.98,-46.75 -214.66,140.44 -456.45,631.97 -552.61,874.81z"/>
 </g>
</svg>
