<?xml version="1.0" encoding="UTF-8"?>
<!DOCTYPE svg PUBLIC "-//W3C//DTD SVG 1.1//EN" "http://www.w3.org/Graphics/SVG/1.1/DTD/svg11.dtd">
<!-- Creator: CorelDRAW -->
<svg xmlns="http://www.w3.org/2000/svg" xml:space="preserve" width="60.7348mm" height="60.7348mm" version="1.1" style="shape-rendering:geometricPrecision; text-rendering:geometricPrecision; image-rendering:optimizeQuality; fill-rule:evenodd; clip-rule:evenodd"
viewBox="0 0 253.4 253.4"
 xmlns:xlink="http://www.w3.org/1999/xlink"
 xmlns:xodm="http://www.corel.com/coreldraw/odm/2003">
 <defs>
  <style type="text/css">
   <![CDATA[
    .fil0 {fill:#FEFEFE}
    .fil1 {fill:black}
   ]]>
  </style>
 </defs>
 <g id="Слой_x0020_1">
  <metadata id="CorelCorpID_0Corel-Layer"/>
  <circle class="fil0" cx="126.7" cy="126.7" r="126.7"/>
  <g id="_2226564078000">
   <path class="fil1" d="M120.09 63c-9.14,2.13 -12.33,2.94 -20.13,8.41 -3.03,2.13 -6.55,5.58 -8.8,8.62 -20.12,27.11 1.3,46.37 -19.27,72.67 -4.49,5.75 -8.51,5.96 -9.38,13.48 -0.63,5.44 4.53,11.89 11.01,11.89l106.36 0c6.32,0 11.47,-6.18 11.04,-11.64 -0.81,-10.33 -11.56,-9.75 -17.39,-28.58 -5.67,-18.34 4.91,-35.99 -11.29,-57.81 -0.45,-0.61 -0.7,-0.95 -1.21,-1.49 -3.21,-3.36 -3.18,-3.83 -7.41,-7.01 -1.17,-0.88 -2.09,-1.61 -3.38,-2.33 -7.77,-4.31 -8.38,-4.23 -16.92,-6.21 0,-6.32 0.95,-13.22 -7.21,-13.22 -2.64,0 -4.76,2.08 -5.5,4.11 -0.8,2.21 -0.51,6.21 -0.51,9.11z"/>
   <path class="fil1" d="M125.5 203.62c7.81,0 11.68,-1.54 17.17,-5.96 1.63,-1.31 3.7,-3.94 4.75,-5.76 2.45,-4.23 2.09,-5.58 3.01,-7.5l-47.47 0c1.26,2.63 1.77,8.23 7.6,13.13 3.41,2.86 8.83,6.1 14.93,6.1z"/>
  </g>
 </g>
</svg>
