<svg width="40" height="42" viewBox="0 0 40 42" fill="none" xmlns="http://www.w3.org/2000/svg">
<path fill-rule="evenodd" clip-rule="evenodd" d="M20.9714 9.96038C27.5879 9.40686 28.4005 15.7475 27.3861 21.6374C26.5397 26.5481 23.7538 31.3719 18.8624 31.7639C12.228 32.2962 11.3547 26.062 12.453 20.1259C13.3566 15.2401 16.0407 10.372 20.9714 9.96038ZM20.8964 0.0396648C9.47242 0.612696 1.7844 9.24187 0.296798 20.204C-1.59262 34.1164 5.64181 42.3446 19.0624 41.6864C29.9185 41.1542 37.3958 33.1956 39.3262 22.6806C41.8657 8.8427 35.5349 -0.694809 20.8964 0.0396648Z" fill="white"/>
<path fill-rule="evenodd" clip-rule="evenodd" d="M19.7609 23.407C15.6849 23.407 12.1099 25.8049 12.1099 28.5372C12.1099 32.0528 17.8693 32.0528 19.7609 32.0528C21.6526 32.0528 27.4109 32.0528 27.4109 28.5143C27.4109 25.7934 23.8359 23.407 19.7609 23.407Z" fill="black"/>
<path fill-rule="evenodd" clip-rule="evenodd" d="M19.7208 21.1274H19.7531C22.5604 21.1274 24.8437 18.844 24.8437 16.0367C24.8437 13.2305 22.5604 10.9471 19.7531 10.9471C16.9459 10.9471 14.6626 13.2305 14.6626 16.0346C14.6532 18.8326 16.9209 21.117 19.7208 21.1274Z" fill="black"/>
</svg>
