<svg width="40" height="42" viewBox="0 0 40 42" fill="none" xmlns="http://www.w3.org/2000/svg">
<path fill-rule="evenodd" clip-rule="evenodd" d="M20.8948 0.0396619C9.47167 0.61265 1.78426 9.24116 0.296775 20.2024C-1.59249 34.1138 5.64136 42.3414 19.0608 41.6833C29.9161 41.1511 37.3928 33.1931 39.3231 22.6789C41.8624 8.84202 35.5321 -0.694756 20.8948 0.0396619Z" fill="#FEC700"/>
<path fill-rule="evenodd" clip-rule="evenodd" d="M19.7609 23.407C15.6849 23.407 12.1099 25.8049 12.1099 28.5372C12.1099 32.0528 17.8692 32.0528 19.7609 32.0528C21.6525 32.0528 27.4109 32.0528 27.4109 28.5143C27.4109 25.7934 23.8359 23.407 19.7609 23.407Z" fill="white"/>
<path fill-rule="evenodd" clip-rule="evenodd" d="M19.7208 21.1275H19.7531C22.5604 21.1275 24.8437 18.8441 24.8437 16.0368C24.8437 13.2306 22.5604 10.9473 19.7531 10.9473C16.9458 10.9473 14.6625 13.2306 14.6625 16.0348C14.6531 18.8327 16.9208 21.1171 19.7208 21.1275Z" fill="white"/>
</svg>
