<?xml version="1.0" standalone="no"?>
<!DOCTYPE svg PUBLIC "-//W3C//DTD SVG 20010904//EN"
 "http://www.w3.org/TR/2001/REC-SVG-20010904/DTD/svg10.dtd">
<svg version="1.0" xmlns="http://www.w3.org/2000/svg"
 width="232.000000pt" height="120.000000pt" viewBox="0 0 232.000000 120.000000"
 preserveAspectRatio="xMidYMid meet">

<g transform="translate(0.000000,120.000000) scale(0.100000,-0.100000)"
fill="#000000" stroke="none">
<path d="M112 1174 c-59 -29 -105 -89 -81 -105 8 -5 24 -9 35 -9 12 0 40 -7
63 -15 22 -8 41 -12 41 -8 0 3 10 -1 23 -9 35 -22 146 -60 157 -53 6 3 10 18
10 32 0 38 56 88 107 96 51 8 73 29 73 68 l0 29 -188 0 c-182 0 -190 -1 -240
-26z"/>
<path d="M707 1193 c-4 -3 -7 -17 -7 -30 0 -14 -17 -42 -41 -68 l-42 -45 7
-77 c4 -50 2 -80 -5 -89 -16 -20 -66 -17 -78 4 -9 14 -11 12 -17 -16 -8 -40
-33 -56 -68 -42 -37 14 -33 33 4 25 18 -4 30 -3 30 4 0 6 -7 8 -15 5 -8 -3
-25 5 -38 20 -29 31 -37 32 -37 6 0 -11 -7 -20 -15 -20 -9 0 -15 9 -15 24 0
14 -4 28 -10 31 -6 4 -10 -6 -10 -23 0 -26 -4 -30 -32 -34 -21 -4 -37 1 -49
13 -14 14 -18 15 -23 3 -3 -9 -20 -14 -44 -14 -31 0 -44 -7 -73 -37 -45 -48
-69 -87 -69 -111 0 -40 26 -47 189 -53 159 -5 208 -16 197 -45 -3 -9 1 -14 14
-14 13 0 22 -9 26 -25 3 -14 10 -25 14 -25 4 0 11 11 14 25 4 14 13 25 21 25
12 0 11 -7 -3 -45 -21 -59 -45 -60 -65 -2 l-15 42 -1 -41 -1 -41 -112 -21
c-69 -14 -151 -22 -210 -22 -53 0 -103 -3 -112 -6 -14 -5 -16 -28 -16 -148 0
-77 5 -158 11 -178 11 -42 25 -46 89 -28 69 20 130 -21 130 -87 0 -30 3 -33
30 -33 23 0 30 4 30 20 0 11 5 20 11 20 6 0 13 -9 16 -20 5 -18 14 -20 97 -20
l92 0 12 45 c9 32 9 52 2 65 -6 11 -10 43 -10 72 1 29 -2 100 -5 158 -9 137
-5 142 131 148 108 5 114 10 94 72 -11 34 -15 37 -31 27 -11 -7 -19 -23 -19
-39 0 -16 -4 -28 -10 -28 -5 0 -10 20 -10 43 l0 44 38 1 c33 2 41 -2 52 -26
l13 -27 9 28 c5 15 16 27 24 27 12 0 12 -6 -2 -37 -38 -90 -40 -83 21 -83 30
0 55 1 55 3 0 1 7 40 15 87 18 105 18 110 1 110 -21 0 -46 40 -46 73 0 22 -4
28 -16 23 -9 -3 -22 -6 -30 -6 -8 0 -14 -4 -14 -10 0 -5 7 -10 15 -10 8 0 15
-7 15 -15 0 -8 -9 -15 -20 -15 -13 0 -20 -7 -20 -20 0 -32 -18 -23 -26 13 -4
17 -9 26 -11 20 -3 -7 -13 -13 -24 -13 -12 0 -19 -7 -19 -20 0 -11 -7 -20 -15
-20 -12 0 -15 13 -15 60 0 47 3 60 15 60 23 0 36 44 24 80 -13 36 -29 39 -29
5 0 -16 -6 -25 -15 -25 -11 0 -15 12 -15 45 l0 44 58 1 c78 1 124 0 142 -4 75
-15 89 -19 84 -27 -3 -5 13 -9 34 -9 37 0 42 4 68 48 15 26 69 89 119 140 l92
92 -262 0 c-144 0 -265 -3 -268 -7z m-467 -393 c0 -5 -11 -10 -25 -10 -14 0
-25 -4 -25 -10 0 -5 9 -10 20 -10 10 0 24 -9 30 -20 24 -45 -38 -83 -71 -44
-12 15 -10 16 19 10 28 -7 32 -5 32 14 0 19 -4 21 -30 15 -29 -6 -30 -5 -30
29 0 35 1 36 40 36 22 0 40 -4 40 -10z m104 -22 c14 -40 -3 -82 -34 -86 -42
-6 -65 51 -39 99 16 30 61 22 73 -13z m64 -2 c-4 -25 -36 -34 -44 -12 -8 21
13 46 32 39 8 -3 14 -15 12 -27z m220 18 c44 -30 17 -104 -38 -104 -59 0 -82
81 -30 107 33 16 41 16 68 -3z m-168 0 c0 -17 -57 -104 -68 -104 -13 0 1 35
36 88 13 20 32 30 32 16z m20 -79 c0 -18 -5 -25 -19 -25 -11 0 -23 5 -26 10
-11 18 3 40 25 40 15 0 20 -7 20 -25z m148 -117 c21 -21 13 -38 -18 -38 -16 0
-30 -5 -30 -11 0 -7 11 -8 31 -4 24 5 30 4 27 -6 -3 -8 -19 -15 -36 -17 -26
-3 -34 2 -43 21 -22 48 33 91 69 55z m-318 -286 c18 -15 20 -21 11 -45 -12
-30 -41 -36 -61 -12 -7 8 -27 17 -46 21 -47 9 -43 20 14 37 62 19 57 20 82 -1z"/>
<path d="M295 777 c-9 -22 -2 -62 10 -60 6 1 11 14 13 29 4 32 -14 56 -23 31z"/>
<path d="M564 754 c-8 -31 7 -48 35 -39 25 8 29 50 5 59 -27 10 -33 7 -40 -20z"/>
<path d="M580 580 c0 -5 7 -10 15 -10 8 0 15 5 15 10 0 6 -7 10 -15 10 -8 0
-15 -4 -15 -10z"/>
<path d="M1550 1029 c0 -5 5 -7 10 -4 6 3 10 8 10 11 0 2 -4 4 -10 4 -5 0 -10
-5 -10 -11z"/>
<path d="M1642 1003 c-6 -2 -10 -8 -7 -13 3 -4 -5 -6 -17 -2 -20 5 -21 3 -10
-11 16 -18 42 -12 42 10 0 13 3 13 15 3 13 -11 14 -10 9 4 -6 17 -10 18 -32 9z"/>
<path d="M1781 971 c-9 -6 -10 -11 -2 -15 6 -4 9 -11 6 -16 -3 -5 -1 -11 4
-14 5 -4 8 6 6 20 -2 21 1 25 16 21 11 -3 17 -1 13 4 -7 11 -25 11 -43 0z"/>
<path d="M1557 964 c-12 -12 -8 -24 9 -24 12 0 11 -5 -7 -20 -13 -10 -19 -19
-13 -20 5 0 15 5 21 11 16 16 33 2 33 -27 0 -13 5 -24 11 -24 6 0 9 6 6 13 -3
8 1 14 8 14 11 0 12 -5 3 -21 -6 -12 -10 -22 -9 -24 1 -1 -8 -15 -19 -30 -12
-15 -20 -20 -17 -12 3 12 -3 15 -30 14 -19 -1 -37 -5 -41 -9 -4 -4 0 -6 8 -4
21 4 60 -10 60 -22 0 -6 7 -3 16 6 15 15 18 14 31 -5 18 -25 8 -43 -20 -34
-12 3 -19 3 -15 -1 14 -14 67 -12 72 2 4 8 1 11 -5 7 -8 -4 -7 0 0 15 7 11 18
21 26 21 8 0 15 5 15 10 0 14 27 12 33 -2 3 -8 6 -6 6 4 1 11 8 16 21 13 12
-2 18 0 15 6 -4 5 -11 7 -16 4 -5 -4 -9 -1 -9 4 0 6 -7 11 -16 11 -11 0 -14 6
-9 23 10 32 29 48 20 17 -5 -20 -4 -22 5 -10 6 8 15 23 21 33 9 17 8 18 -11
12 -16 -5 -20 -4 -16 4 4 6 2 10 -5 9 -22 -5 -20 19 3 27 21 6 21 8 4 12 -10
3 -22 -1 -26 -7 -4 -7 -13 -10 -19 -6 -7 5 -9 1 -5 -8 8 -21 -6 -20 -22 2 -9
12 -16 14 -23 7 -7 -7 -2 -19 19 -38 17 -16 31 -23 35 -17 3 5 11 10 17 10 7
0 6 -6 -2 -15 -7 -8 -9 -15 -5 -15 4 0 2 -6 -4 -14 -6 -7 -9 -21 -5 -30 5 -12
2 -15 -10 -10 -12 5 -15 2 -10 -10 4 -11 1 -16 -12 -16 -16 0 -17 2 -4 10 8 5
11 10 6 10 -6 0 -5 5 1 11 6 6 9 18 6 27 -5 11 -3 13 6 7 8 -4 6 4 -4 19 -9
14 -21 23 -27 20 -5 -3 -15 0 -23 6 -8 7 -15 9 -15 5 0 -4 -13 7 -28 24 -15
18 -31 29 -35 25z m88 -144 c3 -5 -1 -10 -9 -10 -9 0 -16 5 -16 10 0 6 4 10 9
10 6 0 13 -4 16 -10z m5 -30 c0 -5 -5 -10 -11 -10 -5 0 -7 5 -4 10 3 6 8 10
11 10 2 0 4 -4 4 -10z"/>
<path d="M295 911 c-6 -11 9 -23 19 -14 9 9 7 23 -3 23 -6 0 -12 -4 -16 -9z"/>
<path d="M1575 890 c4 -17 3 -21 -3 -12 -11 16 -47 13 -43 -3 1 -5 8 -9 15 -7
8 1 16 -7 19 -18 3 -11 13 -20 22 -20 13 0 15 6 10 33 -4 17 -12 37 -17 42 -7
7 -8 2 -3 -15z"/>
<path d="M1785 900 c-3 -5 1 -10 10 -10 9 0 13 5 10 10 -3 6 -8 10 -10 10 -2
0 -7 -4 -10 -10z"/>
<path d="M1760 855 c0 -8 4 -15 10 -15 5 0 7 7 4 15 -4 8 -8 15 -10 15 -2 0
-4 -7 -4 -15z"/>
<path d="M1561 764 c0 -11 3 -14 6 -6 3 7 2 16 -1 19 -3 4 -6 -2 -5 -13z"/>
<path d="M1600 770 c0 -5 5 -10 11 -10 5 0 7 5 4 10 -3 6 -8 10 -11 10 -2 0
-4 -4 -4 -10z"/>
<path d="M1678 757 c4 -17 5 -17 18 0 13 17 13 17 14 -1 0 -21 13 -14 16 9 1
10 -7 13 -25 12 -21 -2 -27 -6 -23 -20z"/>
<path d="M1603 705 c0 -8 4 -12 9 -9 5 3 6 10 3 15 -9 13 -12 11 -12 -6z"/>
<path d="M1630 700 c0 -11 -7 -20 -15 -20 -9 0 -12 -6 -9 -15 5 -12 10 -10 24
8 17 20 19 20 25 5 4 -10 12 -18 18 -18 5 0 3 8 -6 18 -10 10 -17 24 -17 30 0
7 -4 12 -10 12 -5 0 -10 -9 -10 -20z"/>
<path d="M1694 702 c3 -5 1 -12 -6 -14 -8 -3 -9 -6 -1 -11 6 -4 13 0 17 8 3 8
0 17 -6 21 -6 4 -8 3 -4 -4z"/>
<path d="M2055 660 c-4 -6 -14 -10 -23 -9 -31 3 -43 -1 -41 -13 3 -29 -2 -38
-25 -38 -31 0 -56 -10 -56 -21 0 -5 7 -9 16 -9 14 0 14 -3 4 -15 -16 -19 -30
-19 -30 1 0 8 -4 12 -10 9 -5 -3 -10 -2 -10 4 0 5 6 11 13 14 6 2 9 8 5 12 -5
5 -17 0 -28 -10 -12 -11 -26 -15 -37 -11 -10 4 -18 6 -18 5 0 -1 -10 3 -22 10
-29 15 -29 27 -1 34 18 5 19 8 8 22 -9 11 -16 13 -24 5 -14 -14 -49 -13 -64 2
-9 9 -12 8 -12 -6 0 -15 -3 -16 -15 -6 -8 7 -15 9 -15 4 0 -5 -27 -10 -59 -11
-44 -1 -61 2 -65 13 -3 7 -9 14 -14 14 -13 0 -53 -36 -51 -46 1 -5 0 -11 -1
-14 -1 -3 -3 -17 -4 -32 -2 -26 1 -27 51 -34 29 -3 56 -11 59 -16 4 -6 -9 -7
-31 -2 -27 5 -40 3 -46 -7 -7 -11 -12 -12 -28 -2 -21 13 -51 8 -51 -9 0 -14
-100 1 -125 18 -25 18 -32 18 -38 0 -4 -11 -1 -13 10 -9 11 4 14 2 9 -5 -4 -7
-2 -12 5 -12 22 0 89 -34 89 -45 0 -6 -10 -11 -22 -11 -13 0 -50 -2 -83 -3
l-60 -3 75 -15 c54 -10 103 -12 175 -7 55 4 177 8 270 10 94 1 183 7 198 13
16 6 40 11 54 11 21 0 23 2 13 15 -6 8 -9 19 -5 25 10 16 53 12 63 -6 8 -14
10 -14 15 -1 7 18 -13 24 -124 36 -47 5 -76 4 -80 -2 -4 -5 -14 -7 -22 -4 -8
3 -20 1 -26 -4 -6 -5 -8 -6 -5 -2 3 5 -11 13 -33 20 -27 8 -31 12 -15 12 13 1
20 5 17 11 -9 14 8 12 41 -5 15 -8 33 -10 38 -6 6 5 40 7 76 5 54 -3 71 1 97
19 35 23 39 32 23 42 -12 8 -13 25 -2 25 5 0 14 -12 21 -26 10 -22 15 -25 44
-19 42 9 42 10 29 40 -8 17 -20 25 -37 25 -14 0 -28 7 -31 15 -7 17 -20 19
-29 5z m-275 -161 c16 -9 -22 -13 -87 -9 -18 1 -33 -3 -33 -9 0 -8 -7 -7 -20
1 -18 11 -18 15 -6 24 17 12 122 7 146 -7z"/>
<path d="M1150 616 c-46 -13 -65 -43 -24 -39 16 2 24 -5 28 -23 7 -25 26 -25
26 1 0 15 42 65 54 65 4 0 0 -7 -8 -16 -9 -8 -16 -22 -16 -31 0 -14 23 -13 83
3 21 6 23 24 2 24 -8 0 -14 6 -12 13 3 17 -75 18 -133 3z"/>
<path d="M1428 563 c7 -3 16 -2 19 1 4 3 -2 6 -13 5 -11 0 -14 -3 -6 -6z"/>
<path d="M1295 550 c-3 -6 1 -7 9 -4 18 7 21 14 7 14 -6 0 -13 -4 -16 -10z"/>
<path d="M1335 523 c-18 -14 -18 -15 -2 -9 10 3 25 6 33 6 8 0 14 5 14 10 0
15 -22 12 -45 -7z"/>
<path d="M2040 530 c0 -5 10 -10 23 -10 13 0 31 -6 40 -13 15 -10 16 -17 6
-45 -10 -29 -39 -46 -39 -22 0 6 -6 10 -14 10 -12 0 -12 -4 0 -29 14 -28 11
-81 -5 -81 -3 0 -44 7 -91 15 -169 30 -303 15 -421 -46 -88 -46 -132 -85 -110
-99 8 -5 24 -4 38 3 18 8 26 8 31 0 4 -7 25 -11 47 -11 22 1 55 -4 73 -10 18
-6 30 -7 27 -1 -3 5 1 6 9 3 23 -9 28 -34 7 -34 -10 0 -26 -8 -35 -19 -9 -10
-27 -19 -39 -20 -85 -5 -101 -7 -104 -18 -9 -27 357 -30 439 -2 69 23 117 101
61 98 -16 0 -16 -1 2 -9 14 -6 16 -9 5 -10 -8 -1 -28 -4 -44 -6 -15 -1 -31 -5
-33 -8 -3 -3 -12 2 -21 11 -14 14 -17 14 -28 -2 -7 -9 -18 -14 -24 -10 -9 6
-9 10 1 16 12 7 12 9 0 9 -11 0 -11 3 -1 15 7 8 16 12 21 9 5 -3 9 -1 9 4 0
17 -47 35 -66 24 -28 -14 -202 -24 -209 -12 -3 6 -23 11 -43 12 -39 1 39 10
188 22 47 3 109 11 137 17 29 6 63 8 75 4 16 -4 19 -3 9 3 -19 13 -2 22 61 29
51 6 85 24 140 72 l27 23 -32 26 c-18 14 -34 28 -37 30 -2 1 1 6 8 10 18 12
-34 62 -63 62 -14 0 -25 -4 -25 -10z m-170 -190 c0 -5 -8 -10 -17 -10 -15 0
-16 2 -3 10 19 12 20 12 20 0z m-114 -20 c0 -22 -20 -27 -32 -8 -4 6 -3 8 3 5
6 -4 13 0 17 8 8 21 12 19 12 -5z m-126 -30 c0 -5 -5 -10 -11 -10 -5 0 -7 5
-4 10 3 6 8 10 11 10 2 0 4 -4 4 -10z m186 -112 c4 4 2 -2 -6 -12 -14 -17 -15
-18 -18 -2 -3 14 -7 15 -18 5 -17 -14 -19 2 -2 19 10 10 15 10 24 -2 6 -9 15
-12 20 -8z m-66 -3 c0 -8 -2 -15 -4 -15 -2 0 -6 7 -10 15 -3 8 -1 15 4 15 6 0
10 -7 10 -15z"/>
<path d="M1065 477 c-25 -15 -21 -46 5 -44 10 1 16 5 14 9 -3 5 -10 6 -15 3
-5 -3 -6 1 -3 9 3 9 12 16 19 16 16 0 38 -26 32 -38 -3 -4 -1 -14 5 -22 8 -12
9 -11 4 5 -6 19 -5 19 7 3 8 -10 18 -14 22 -10 5 4 5 -1 2 -11 -5 -12 -3 -16
5 -11 8 5 9 2 5 -9 -4 -10 -1 -17 6 -17 7 0 3 -7 -7 -15 -16 -12 -17 -17 -6
-30 7 -8 24 -15 39 -15 14 0 38 -7 53 -14 73 -38 22 40 -88 135 -32 29 -60 56
-62 60 -5 12 -13 11 -37 -4z m145 -145 c0 -5 -7 -9 -15 -9 -8 0 -12 4 -9 9 3
4 9 8 15 8 5 0 9 -4 9 -8z"/>
<path d="M1073 402 c0 -10 9 -26 19 -36 18 -19 18 -19 18 5 0 13 -4 29 -8 34
-12 17 -31 15 -29 -3z"/>
<path d="M565 228 c-11 -6 -22 -12 -24 -14 -10 -9 23 -65 37 -62 15 3 59 65
51 72 -13 11 -47 14 -64 4z"/>
<path d="M818 201 c-25 -21 -38 -26 -53 -20 -64 25 -92 2 -79 -66 8 -45 -8
-65 -51 -65 -22 0 -37 7 -48 23 -23 32 -22 -2 1 -42 l17 -31 92 0 91 0 -15 39
c-14 35 -14 42 2 75 17 35 19 36 36 20 10 -9 21 -30 25 -47 11 -50 33 -76 70
-83 19 -3 37 -4 40 -2 2 3 -5 25 -15 49 -11 24 -27 74 -37 112 -10 41 -22 67
-30 67 -7 0 -28 -13 -46 -29z"/>
</g>
</svg>
