<svg width="240" height="100" viewBox="0 0 240 100" fill="none" xmlns="http://www.w3.org/2000/svg">
    <g clip-path="url(#clip0_72_310)">
        <path fill-rule="evenodd" clip-rule="evenodd"
            d="M65.1136 11.4474C72.6735 10.8116 73.6038 18.0966 72.4458 24.8656C71.4788 30.5073 68.2937 36.0535 62.7021 36.5035C55.1202 37.1149 54.1214 29.9521 55.3773 23.1293C56.4104 17.5146 59.4804 11.9218 65.1136 11.4474ZM164.668 11.4474C172.228 10.8116 173.158 18.0966 172 24.8656C171.033 30.5073 167.848 36.0535 162.256 36.5035C154.674 37.1149 153.676 29.9521 154.931 23.1293C155.965 17.5146 159.035 11.9218 164.668 11.4474ZM164.582 0.0467184C151.526 0.704545 142.74 10.6208 141.038 23.2198C138.879 39.2082 147.146 48.6623 162.484 47.9066C174.891 47.2953 183.435 38.1493 185.644 26.0663C188.547 10.1636 181.31 -0.796962 164.582 0.0467184ZM114.897 11.4474C122.459 10.8116 123.387 18.0966 122.229 24.8656C121.262 30.5073 118.079 36.0535 112.488 36.5035C104.906 37.1149 103.907 29.9521 105.163 23.1293C106.196 17.5146 109.266 11.9218 114.899 11.4474H114.897ZM114.811 0.0467184C101.755 0.704545 92.9687 10.6208 91.2672 23.2198C89.1079 39.2082 97.3754 48.6623 112.713 47.9066C125.12 47.2953 133.664 38.1493 135.87 26.0663C138.774 10.1636 131.537 -0.796962 114.809 0.0467184H114.811ZM0 46.8258L33.5936 46.8551C34.2546 43.4951 34.7393 41.0423 35.3979 37.6822C35.5668 36.8141 35.3391 35.1292 33.4957 35.1292H16.2631L23.0592 1.10804L9.30054 1.10071L0.00244816 46.8258H0ZM186.806 46.8258L200.404 46.8575L202.928 34.6181C203.065 33.9382 203.089 33.7597 203.89 33.0505C204.693 32.3413 206.943 30.3532 208.037 29.3872L216.14 46.8502L231.608 46.8575L218.726 19.9185L240 1.10315H223.945L206.695 16.3579C207.569 12.1248 208.441 7.88928 209.315 3.6562C209.626 2.14981 208.7 1.10315 207.54 1.10315H196.083C192.991 16.3457 189.898 31.5857 186.806 46.8282V46.8258ZM65.0279 0.0491638C51.9719 0.70699 43.1855 10.6233 41.484 23.2223C39.3247 39.2106 47.5921 48.6647 62.9298 47.9091C75.3371 47.2977 83.8811 38.1517 86.0869 26.0688C88.9904 10.166 81.7561 -0.794517 65.0254 0.0491638H65.0279Z"
            fill="white" />
        <path fill-rule="evenodd" clip-rule="evenodd"
            d="M171.772 64.4991C170.923 68.2773 174.627 70.6543 177.44 72.3001C184.777 76.516 171.305 80.5046 170.541 76.1296C170.377 75.1857 171.78 74.6208 171.173 74.3127C169.65 73.5399 164.998 78.4846 171.43 81.27C173.577 82.1992 176.37 81.8104 178.994 80.8494C183.208 79.3063 187.12 73.6915 182.329 70.5369C179.805 68.8764 175.094 67.2062 176.522 63.653C177.33 61.8947 178.292 60.3932 180.084 59.0922C181.139 58.3268 185.181 56.4193 186.39 57.7032C186.376 58.5469 183.639 62.7041 183.67 64.3939C183.7 65.8392 184.677 67.551 185.506 67.1695C185.981 66.9519 186.055 66.1351 186.292 65.5922C187.154 63.6309 191.835 57.8377 191.071 56.6834C190.777 56.2408 190.425 55.6637 190.075 55.314C188.388 53.6242 187.732 55.4411 187.318 56.3606C186.552 54.4434 184.99 53.7049 183.017 53.8516C178.179 54.2086 172.744 60.1804 171.772 64.4942V64.4991ZM163.943 84.9895C185.316 107.632 221.463 103.797 238.406 79.2696C238.8 78.6998 238.514 78.1153 237.919 78.8147C220.77 99.0655 189.419 101.819 169.486 84.1287C168.994 83.691 168.027 82.8082 167.552 82.3435C165.41 80.5706 161.887 82.8131 163.943 84.9895ZM61.6372 77.6727C60.751 78.2939 59.8745 78.1496 59.8941 76.6872C59.9798 73.7478 62.9249 68.7982 64.8198 66.6755C65.1748 66.3185 66.1271 65.4088 66.7759 65.5824C67.7062 65.8294 66.5286 69.0281 65.1185 72.0115C64.4771 73.3687 62.898 76.7924 61.6372 77.6752V77.6727ZM50.4663 75.4205C50.361 75.7139 50.2068 76.5087 50.2117 77.2399C50.2337 79.6217 52.1384 78.5604 53.2743 77.57C54.3123 76.6652 56.2464 74.1733 57.0102 73.0044C58.364 69.6785 61.9775 64.389 65.3168 63.1247C65.9876 62.8704 66.8567 62.9046 67.6205 63.1663C71.5596 64.5064 69.1065 71.0871 67.8726 73.6084C70.0907 72.3979 71.6942 69.6174 71.7554 69.5049C72.0149 69.0329 72.2059 68.5756 72.3919 68.1208C72.9183 66.8369 74.3505 63.5625 75.6676 63.1321C76.3237 62.9169 79.3202 63.7263 77.7216 66.1449C76.7644 67.5926 75.5843 69.7348 75.0311 71.2241C74.6712 72.19 73.7188 74.7553 73.5181 76.4867C73.3443 77.9808 73.7482 78.4626 74.9894 77.3328C77.6849 74.8874 80.2162 68.5928 81.6337 65.0175C82.6742 62.2444 85.6487 64.0418 84.454 67.2649C82.7036 71.9846 78.6347 78.4455 75.129 80.3725C73.8829 81.0597 72.9624 81.1526 72.272 80.9056C69.3195 79.8443 69.8287 76.4793 70.3184 74.3885C69.6892 74.8287 67.6009 75.9756 66.2887 76.5723C65.1258 78.2303 63.7279 80.0179 61.9236 80.7784C59.1131 81.962 56.2341 80.1059 56.239 77.1421C55.1129 78.4333 54.2511 79.5679 52.2877 80.7442C50.3561 81.9009 47.6313 81.0499 47.0731 78.7536C46.5688 79.1278 45.969 79.5435 45.5822 79.8027C44.8722 80.2747 44.7621 78.2107 44.9702 77.5284C45.166 76.8853 45.2982 76.5698 45.592 76.3668C45.898 76.1565 46.302 75.8729 46.7696 75.5476C47.3669 70.7056 53.9696 56.9133 58.7459 53.788C60.0557 52.9321 61.2455 52.9394 62.0411 53.5068C66.629 56.7739 52.983 72.7158 50.4687 75.4205H50.4663ZM51.492 71.7083C52.3146 69.3509 58.1682 57.8743 59.7717 56.2041C60.3544 55.5879 60.7338 55.4582 60.9248 55.6563C61.4316 56.1919 60.5453 57.8719 60.2834 58.3806C58.3371 62.1343 54.3711 68.9547 51.4945 71.7058L51.492 71.7083ZM6.03225 57.9575C6.77159 57.3437 7.46687 56.928 8.02749 56.8375C8.65177 56.7372 8.97003 57.0136 9.04103 57.5491C9.609 61.8066 6.05673 70.9502 4.14962 75.6112L3.38579 77.2056C2.75906 78.5335 3.21687 79.4726 4.07862 80.5388C5.57689 82.3949 6.72752 82.6101 8.06667 80.4679L9.76813 77.5113C10.0472 76.9855 10.27 76.4647 10.5417 75.9291C10.8649 75.2933 14.6767 68.5536 14.7575 68.5267C14.2948 69.7079 12.2995 73.9996 12.7084 77.2961C13.0511 80.0644 15.6535 83.2532 18.5644 81.2088C23.845 77.4991 29.9948 65.7096 31.2262 60.1217C31.6326 58.2803 31.5641 56.588 30.6093 55.2993C29.7916 54.1988 27.0325 53.1326 27.1696 54.4532C27.3532 56.2579 27.8184 59.1215 23.8279 67.7711C21.6809 72.4199 18.6084 78.2327 16.8972 78.2474C14.2678 78.2694 20.4886 60.87 21.6148 58.6862C22.2317 57.488 22.9 56.2897 21.2965 55.2357C20.5523 54.7466 19.6562 54.2282 19.0197 55.1819C17.5068 57.4488 8.69829 75.9634 6.57574 78.2572C8.93086 73.2171 11.7071 65.3452 12.4464 60.0288C13.1368 55.3555 9.00431 53.3845 5.35411 54.6097C4.13003 55.0205 2.72969 56.0745 1.47134 57.417C0.918052 59.2267 4.4997 59.2316 6.0298 57.9599L6.03225 57.9575ZM31.613 72.2022C32.9228 69.1577 35.1286 66.1033 36.4041 65.6704C37.9831 65.1349 36.8741 67.9105 35.273 70.0013C34.4064 71.1336 33.4418 72.1411 31.613 72.2022ZM29.4513 80.9619C32.536 82.4096 35.295 80.3285 37.3931 77.9662C37.9929 77.2912 38.2279 76.851 38.3185 76.181C38.4654 75.0903 38.3773 73.8725 37.2878 75.149C35.6207 77.1029 33.3904 79.2574 31.7036 78.5482C30.4355 78.0151 30.3253 76.3937 30.8198 74.4692C34.5116 74.3004 39.1142 71.2632 39.5965 67.3407C40.0592 63.5943 36.2474 62.3153 33.4442 64.0564C32.5409 64.6165 31.6865 65.4455 30.8198 66.4139C28.4476 69.0696 24.3493 78.5653 29.4489 80.9594L29.4513 80.9619ZM87.5264 71.5835C88.8803 68.5561 91.1277 65.5359 92.4105 65.1202C93.9969 64.6091 92.8487 67.3651 91.2183 69.4364C90.3345 70.5565 89.3577 71.5493 87.5264 71.5835ZM85.2399 80.3114C88.3025 81.8031 91.091 79.7611 93.2257 77.4282C93.8353 76.7606 94.0777 76.3253 94.1781 75.6577C94.3397 74.5694 94.2687 73.3492 93.1621 74.611C91.468 76.5429 89.2059 78.6631 87.5289 77.9295C86.2705 77.3793 86.18 75.7555 86.7039 73.8383C90.3957 73.7209 95.0423 70.7521 95.5833 66.8369C96.0999 63.0978 92.3077 61.7651 89.4776 63.4646C88.5669 64.0124 87.7003 64.8268 86.8214 65.7854C84.4124 68.4069 80.1771 77.8439 85.2423 80.3089L85.2399 80.3114ZM220.035 55.6025C221.098 56.2383 221.254 57.9306 220.385 59.3807C219.516 60.8309 217.947 61.4887 216.884 60.8529C215.82 60.2171 215.665 58.5248 216.534 57.0747C217.404 55.6245 218.973 54.9667 220.035 55.6025ZM220.794 71.7352C221.629 69.3826 227.549 57.9453 229.162 56.2848C230.178 55.2406 230.472 55.5292 230.44 56.1797C230.313 58.6936 222.594 70.2997 220.797 71.7352H220.794ZM105.102 85.6742C104.806 85.3001 104.262 84.0064 103.52 84.8452C103.023 85.4052 103.092 86.5081 103.552 87.0559C105.604 89.5063 109.308 89.5552 111.834 87.8262C116.677 84.5127 119.81 73.0313 122.834 67.3994C125.096 63.1859 121.487 61.7895 120.354 63.7532C118.855 66.3503 115.568 72.6938 114.828 73.535C114.307 74.1293 112.958 75.687 111.815 76.6848C110.368 77.9466 109.814 77.9026 110.444 75.8924C111.367 72.9432 114.792 67.639 115.57 65.8196C116.148 64.4722 113.21 61.9289 111.851 64.235C110.287 66.8883 102.017 81.4094 109.117 81.2993C111.827 81.023 114.26 77.2545 114.987 76.203C114.441 77.5676 109.127 90.7412 105.102 85.6791V85.6742ZM131.867 68.1257C131.373 69.8228 130.455 72.036 130.227 72.5519C129.358 74.501 128.335 76.3693 127.441 77.3915C127.098 77.7852 126.682 78.2327 125.887 78.3257C124.949 78.4333 124.685 77.8097 124.714 76.9366C124.804 74.3224 127.165 70.131 129.025 67.7491C130.408 65.9786 132.974 64.3181 131.865 68.1257H131.867ZM150.872 66.6144C152.743 63.2641 149.501 61.298 148.089 63.6774C147.102 65.3354 145.109 69.3533 144.177 70.554C143.166 71.855 139.618 77.998 138.078 77.817C137.427 76.2739 141.689 68.4974 142.573 66.9152C144.444 63.5649 141.202 61.5988 139.79 63.9782C139.112 65.1202 137.64 67.5021 136.406 70.153C135.9 70.9453 134.499 72.9359 132.707 73.9018C133.696 71.9039 134.8 69.0036 134.59 66.5557C134.242 62.4963 130.685 62.5574 128.002 64.7583C126.19 66.2451 124.391 68.5267 123.184 70.5076C121.526 73.2269 119.36 79.3112 123.392 81.0597C124.369 81.4827 125.549 81.5219 126.719 81.0377C128.528 80.2869 129.933 78.5066 131.106 76.8535C132.178 76.3717 133.767 75.5281 134.661 74.9974C134.142 77.3181 134.284 79.3919 135.797 80.5535C136.345 80.9741 136.847 81.0621 137.643 80.8518C138.999 80.4923 141.716 77.4404 142.48 76.0343C141.998 78.0787 142.705 81.3482 145.166 80.8763C147.707 80.3872 150.816 75.017 152.809 71.4588C153.661 69.9402 154.52 68.4289 155.367 66.9078C155.553 66.6071 155.7 66.3405 155.862 66.0079C156.388 64.9173 158.244 65.5066 158.278 66.4457C158.3 67.0668 157.847 68.0132 157.568 68.424C156.755 69.6223 155.257 71.9039 154.278 74.1684C153.656 75.6088 153.093 77.2056 153.512 78.7781C154.219 81.4387 157.265 81.0866 159.071 79.3796C159.918 78.58 160.606 77.5774 161.067 76.6676C161.786 75.2493 160.814 74.545 159.85 75.5941C159.208 76.291 158.618 76.9342 158.097 77.2937C157.269 77.861 156.88 77.4331 157.191 76.5698C157.884 74.6477 160.337 70.9746 161 69.8937C162.352 67.732 163.121 65.8783 160.335 64.7069C159.252 64.2521 157.94 63.8437 157.759 63.6627C157.774 63.1272 158.91 61.6648 158.648 60.332C158.391 59.031 154.574 60.2709 154.425 63.4964C154.364 64.8268 154.846 64.7118 154.013 65.9908C152.513 68.2993 146.679 79.7122 145.957 77.636C145.504 76.3351 149.837 68.4827 150.877 66.6217L150.872 66.6144ZM230.242 72.2438C231.603 69.2212 233.862 66.206 235.145 65.7952C236.732 65.2865 235.579 68.0425 233.941 70.1065C233.055 71.2241 232.073 72.2145 230.242 72.2438ZM217.621 70.3241C216.211 72.4419 214.387 75.5354 212.735 77.3304C211.129 79.0764 211.623 76.9048 212.003 75.9609C213.119 73.1804 214.573 70.6103 216.116 67.5706C216.559 66.6951 217.235 65.7609 216.887 64.7436C216.358 63.1859 213.988 62.2957 212.671 65.8221C211.89 67.9129 209.709 71.4906 208.514 73.5326C208.198 74.073 205.219 78.4235 204.519 78.0126C204.208 77.8366 204.291 77.46 204.406 77.0687C205.444 73.5203 208.411 70.0429 209.569 66.6878C209.888 65.7609 209.432 64.2496 208.59 63.7288C205.305 61.6355 201.038 69.0427 199.958 70.3682C200.92 68.6001 202.152 66.1253 201.322 64.2961C200.597 62.8508 198.984 63.0636 197.965 64.0124C196.947 64.9613 193.669 68.896 191.03 72.4737C191.835 70.9746 193.664 67.4532 194.171 66.2158C194.67 64.9931 193.987 63.8315 192.954 63.3522C191.637 62.7384 191.5 63.3301 190.954 64.4282C189.086 68.1721 187.122 72.5128 185.695 76.4622C185.538 76.8975 185.399 77.3059 185.284 77.6776C184.843 79.1131 184.74 79.4188 185.602 80.6293C186.221 81.4974 186.907 81.7322 187.852 80.4141C191.583 75.2248 192.812 71.7083 198.296 66.1815C198.413 67.4141 193.113 76.1712 192.239 78.5433C191.671 80.0839 194.002 82.0036 195.299 80.7295C195.691 80.3456 196.837 77.4404 197.331 76.5869C197.52 76.2641 204.416 66.0128 205.363 66.1791C205.437 66.4995 200.046 75.4743 200.572 78.558C200.67 79.1327 201.123 80.0815 201.424 80.4361C203.76 83.153 206.756 79.0666 207.853 77.5358C207.731 79.4946 208.304 80.5657 209.244 80.8836C211.795 81.7444 214.735 77.9099 215.979 76.1737C215.898 77.0467 215.94 77.9026 216.192 78.668C216.924 80.8885 219.475 81.9963 221.536 80.7784C223.504 79.6144 224.373 78.4822 225.504 77.1959C225.517 77.1323 225.629 79.8369 227.918 80.9594C230.976 82.4585 233.772 80.4287 235.912 78.1007C236.524 77.4355 236.766 77.0002 236.869 76.3326C237.035 75.2444 236.967 74.0266 235.855 75.2835C234.156 77.2105 231.887 79.3234 230.212 78.5849C228.954 78.0298 228.871 76.406 229.399 74.4912C233.094 74.3836 237.748 71.4295 238.299 67.5168C238.825 63.7801 235.038 62.4351 232.203 64.1274C231.289 64.6727 230.423 65.4846 229.539 66.4408C228.293 67.7882 226.66 70.7032 225.916 73.6182C225.007 74.8898 223.438 76.8364 222.54 77.6116C221.316 78.6656 219.406 79.5313 219.475 77.1029C219.494 76.4255 219.644 75.7212 219.742 75.4474C223.135 71.8354 226.817 67.4532 229.453 62.9095C230.557 61.0045 232.9 56.9695 232.092 54.7368C231.395 52.8147 229.666 52.8661 228.131 53.8565C224.043 56.5 219.44 65.7487 217.609 70.3168L217.621 70.3241Z"
            fill="#FEFEFE" />
    </g>
    <defs>
        <clipPath id="clip0_72_310">
            <rect width="240" height="100" fill="white" />
        </clipPath>
    </defs>
</svg>