<svg width="30" height="40" viewBox="0 0 30 40" fill="none" xmlns="http://www.w3.org/2000/svg">
<g filter="url(#filter0_d_73_389)">
<path d="M6.3124 30.7599L5.35357 14.4597H22.6099L21.651 30.7599H6.3124Z" stroke="white" stroke-width="1.57744"/>
<path fill-rule="evenodd" clip-rule="evenodd" d="M16.6309 8.03776L19.3288 5.52037C19.3904 5.53938 19.4521 5.55451 19.5151 5.56968L20.159 5.63234L20.1779 6.28034C20.1874 6.34294 20.1995 6.40564 20.2129 6.46837L17.515 8.98576C17.4208 8.78697 17.2968 8.60372 17.1473 8.44235C16.9968 8.28199 16.8226 8.14556 16.6309 8.03776ZM17.5988 3.76465C17.7119 4.15421 17.9148 4.51182 18.1912 4.80872L18.1911 4.81002L15.1514 7.6437C13.0994 7.52417 10.2696 8.65275 8.36296 10.4284C6.90809 11.7861 6.54337 13.3224 6.91929 14.7227L8.29106 14.7227C7.87782 13.6535 8.08595 12.4606 9.24839 11.3765C11.4702 9.30433 15.2314 8.28864 16.1993 9.32648C16.9736 10.1567 16.3096 12.6845 14.8729 14.7227L16.427 14.7227C17.2735 13.3105 17.7899 11.7666 17.8038 10.489L20.8448 7.65406C21.1218 7.95047 21.4644 8.17777 21.8451 8.31769C22.2259 8.45761 22.6342 8.50625 23.0371 8.45969C23.4401 8.41314 23.8265 8.2727 24.1653 8.04965C24.5041 7.8266 24.7859 7.52717 24.988 7.17543C25.19 6.82369 25.3067 6.42945 25.3287 6.0244C25.3507 5.61935 25.2774 5.2148 25.1146 4.84325C24.9518 4.4717 24.7041 4.14353 24.3914 3.88511C24.0787 3.62669 23.7098 3.44523 23.3142 3.35533L22.6677 3.29387L22.6515 2.64466C22.5893 2.24381 22.434 1.86312 22.198 1.53321C21.962 1.20329 21.6518 0.933349 21.2925 0.745082C20.9332 0.556816 20.5347 0.455476 20.1291 0.449207C19.7235 0.442937 19.3221 0.531916 18.9572 0.708989C18.5922 0.88606 18.2739 1.14629 18.0278 1.46875C17.7817 1.79122 17.6147 2.16692 17.5402 2.56567C17.4657 2.96442 17.4858 3.37508 17.5988 3.76465ZM21.6074 6.51394C21.4796 6.28368 21.4249 6.01993 21.4506 5.7578L21.5616 4.62006L22.7043 4.58854C22.9676 4.58111 23.2269 4.65405 23.4477 4.79764C23.6685 4.94124 23.8404 5.14868 23.9403 5.39235C24.0403 5.63602 24.0637 5.90437 24.0074 6.16167C23.9511 6.41897 23.8178 6.65302 23.6252 6.83266C23.4325 7.01231 23.1898 7.12902 22.9292 7.16727C22.6686 7.20552 22.4025 7.1635 22.1664 7.04678C21.9303 6.93007 21.7353 6.74421 21.6074 6.51394ZM21.2206 2.41102C21.3485 2.64129 21.4032 2.90504 21.3775 3.16717L21.2665 4.30491L20.1237 4.33642C19.8605 4.34385 19.6012 4.27091 19.3804 4.12732C19.1596 3.98373 18.9877 3.77629 18.8877 3.53261C18.7877 3.28894 18.7643 3.02059 18.8207 2.76329C18.877 2.50599 19.0103 2.27194 19.2029 2.0923C19.3955 1.91266 19.6383 1.79594 19.8989 1.75769C20.1595 1.71944 20.4256 1.76147 20.6617 1.87818C20.8978 1.99489 21.0928 2.18075 21.2206 2.41102Z" fill="white"/>
<path d="M22.2744 14.3464C22.4075 14.0099 22.4408 13.5744 22.3828 13.2181C22.2911 12.6545 21.7128 12.1125 21.3155 11.7476C20.5985 11.0891 19.7704 10.5517 18.7878 10.4566C18.4286 10.4219 17.909 10.3858 17.6086 10.626" stroke="white" stroke-width="1.57744" stroke-linecap="square"/>
<path d="M5.9897 13.776C5.31902 13.2521 5.31709 12.0722 5.35996 11.3114C5.40726 10.4718 5.55134 9.3407 6.06841 8.65127C6.67067 7.84826 7.87551 7.7604 8.78551 7.76638C9.47958 7.77095 10.1549 7.8176 10.7724 8.15725C10.9949 8.2796 10.5336 7.76638 11.3527 8.93866" stroke="white" stroke-width="1.57744" stroke-linecap="square"/>
</g>
<defs>
<filter id="filter0_d_73_389" x="0.51709" y="0.448898" width="28.8154" height="39.0997" filterUnits="userSpaceOnUse" color-interpolation-filters="sRGB">
<feFlood flood-opacity="0" result="BackgroundImageFix"/>
<feColorMatrix in="SourceAlpha" type="matrix" values="0 0 0 0 0 0 0 0 0 0 0 0 0 0 0 0 0 0 127 0" result="hardAlpha"/>
<feOffset dy="4"/>
<feGaussianBlur stdDeviation="2"/>
<feComposite in2="hardAlpha" operator="out"/>
<feColorMatrix type="matrix" values="0 0 0 0 0 0 0 0 0 0 0 0 0 0 0 0 0 0 0.25 0"/>
<feBlend mode="normal" in2="BackgroundImageFix" result="effect1_dropShadow_73_389"/>
<feBlend mode="normal" in="SourceGraphic" in2="effect1_dropShadow_73_389" result="shape"/>
</filter>
</defs>
</svg>
